<svg width="345" height="344" viewBox="0 0 345 344" fill="none" xmlns="http://www.w3.org/2000/svg">
<g style="mix-blend-mode:darken">
<path d="M0.897652 343.85L0.824584 343.863L0.744839 343.876L0.897652 343.85ZM0.744839 343.876L0.660103 343.89L0.572047 343.905L0.744839 343.876ZM0.572047 343.905L0.482304 343.92L0.392578 343.935L0.572047 343.905ZM161.094 140.7L161.374 143.48L161.654 146.261L161.094 140.7ZM0.897652 343.85L0.572047 343.905L0.392578 343.935L0.897652 343.85Z" fill="#C8D5E1"/>
<path d="M299.712 309.259L265.801 337.916L266.824 337.13L299.712 309.259ZM298.622 309.997L264.732 338.639L265.801 337.916L298.622 309.997ZM297.181 310.853L263.319 339.479L264.732 338.639L297.181 310.853ZM295.696 311.629L261.864 340.239L263.319 339.479L295.696 311.629ZM294.173 312.325L260.371 340.921L261.864 340.239L294.173 312.325ZM292.616 312.945L258.845 341.528L260.371 340.921L292.616 312.945ZM291.029 313.489L257.29 342.062L258.845 341.528L291.029 313.489ZM289.418 313.961L255.71 342.525L257.29 342.062L289.418 313.961ZM287.786 314.362L254.111 342.918L255.71 342.525L287.786 314.362ZM286.138 314.695L252.495 343.244L254.111 342.918L286.138 314.695ZM284.479 314.962L250.869 343.505L252.495 343.244L284.479 314.962ZM282.813 315.164L249.236 343.704L250.869 343.505L282.813 315.164ZM281.145 315.304L247.601 343.841L249.236 343.704L281.145 315.304ZM279.479 315.385L245.968 343.92L247.601 343.841L279.479 315.385ZM269.163 315.385L235.857 343.92H245.968L269.163 315.385ZM258.848 315.385L225.747 343.92H235.857L258.848 315.385ZM248.536 315.385L215.639 343.92H225.747L248.536 315.385ZM238.224 315.385L205.532 343.92H215.639L238.224 315.385ZM227.913 315.385L195.426 343.92H205.532L227.913 315.385ZM217.604 315.385L185.321 343.92H195.426L217.604 315.385ZM207.295 315.385L175.217 343.92H185.321L207.295 315.385ZM196.987 315.385L165.114 343.92H175.217L196.987 315.385ZM186.68 315.385L155.011 343.92H165.114L186.68 315.385ZM176.373 315.385L144.909 343.92H155.011L176.373 315.385ZM166.067 315.385L134.806 343.92H144.909L166.067 315.385ZM155.76 315.385L124.704 343.92H134.806L155.76 315.385ZM154.576 315.378L123.544 343.913L124.704 343.92L154.576 315.378ZM153.393 315.376L122.384 343.911L123.544 343.913L153.393 315.376ZM152.209 315.378L121.224 343.914L122.384 343.911L152.209 315.378ZM151.025 315.383L120.064 343.919L121.224 343.914L151.025 315.383ZM149.841 315.389L118.903 343.924L120.064 343.919L149.841 315.389ZM148.658 315.395L117.743 343.93L118.903 343.924L148.658 315.395ZM147.474 315.399L116.583 343.934L117.743 343.93L147.474 315.399ZM146.29 315.4L115.423 343.935L116.583 343.934L146.29 315.4ZM145.107 315.396L114.262 343.931L115.423 343.935L145.107 315.396ZM143.923 315.387L113.102 343.922L114.262 343.931L143.923 315.387ZM142.739 315.37L111.942 343.905L113.102 343.922L142.739 315.37ZM141.555 315.344L110.782 343.88L111.942 343.905L141.555 315.344ZM140.108 311.87L109.363 340.475L110.782 343.88L140.108 311.87ZM138.725 308.369L108.008 337.043L109.363 340.475L138.725 308.369ZM137.411 304.84L106.72 333.585L108.008 337.043L137.411 304.84ZM136.167 301.286L105.501 330.101L106.72 333.585L136.167 301.286ZM134.997 297.707L104.353 326.593L105.501 330.101L134.997 297.707ZM133.902 294.103L103.28 323.061L104.353 326.593L133.902 294.103ZM132.885 290.477L102.284 319.507L103.28 323.061L132.885 290.477ZM131.95 286.829L101.367 315.931L102.284 319.507L131.95 286.829ZM131.097 283.16L100.531 312.334L101.367 315.931L131.097 283.16ZM130.331 279.471L99.7795 308.718L100.531 312.334L130.331 279.471ZM129.652 275.762L99.1148 305.084L99.7795 308.718L129.652 275.762ZM129.065 272.036L98.5393 301.432L99.1148 305.084L129.065 272.036ZM128.47 267.587L97.9554 297.071L98.5393 301.432L128.47 267.587ZM128.011 263.121L97.5058 292.693L97.9554 297.071L128.011 263.121ZM127.691 258.642L97.1928 288.303L97.5058 292.693L127.691 258.642ZM127.514 254.155L97.019 283.905L97.1928 288.303L127.514 254.155ZM127.481 249.666L96.9869 279.505L97.019 283.905L127.481 249.666ZM127.596 245.178L97.099 275.107L96.9869 279.505L127.596 245.178ZM127.86 240.698L97.3578 270.715L97.099 275.107L127.86 240.698ZM128.276 236.228L97.7658 266.334L97.3578 270.715L128.276 236.228ZM128.847 231.776L98.3255 261.97L97.7658 266.334L128.847 231.776ZM129.575 227.345L99.0394 257.627L98.3255 261.97L129.575 227.345ZM130.464 222.939L99.91 253.309L99.0394 257.627L130.464 222.939ZM131.514 218.565L100.94 249.021L99.91 253.309L131.514 218.565ZM132.488 214.999L101.895 245.526L100.94 249.021L132.488 214.999ZM133.572 211.466L102.957 242.063L101.895 245.526L133.572 211.466ZM134.763 207.968L104.124 238.635L102.957 242.063L134.763 207.968ZM136.059 204.509L105.394 235.244L104.124 238.635L136.059 204.509ZM137.456 201.089L106.764 231.892L105.394 235.244L137.456 201.089ZM138.953 197.712L108.231 228.582L106.764 231.892L138.953 197.712ZM140.547 194.38L109.794 225.317L108.231 228.582L140.547 194.38ZM142.236 191.096L111.449 222.098L109.794 225.317L142.236 191.096ZM144.016 187.862L113.193 218.927L111.449 222.098L144.016 187.862ZM145.886 184.68L115.026 215.808L113.193 218.927L145.886 184.68ZM147.842 181.552L116.943 212.743L115.026 215.808L147.842 181.552ZM149.882 178.482L118.943 209.734L116.943 212.743L149.882 178.482ZM152.652 174.582L121.658 205.911L118.943 209.734L152.652 174.582ZM155.548 170.78L124.496 202.185L121.658 205.911L155.548 170.78ZM158.564 167.075L127.453 198.553L124.496 202.185L158.564 167.075ZM161.695 163.467L130.522 195.017L127.453 198.553L161.695 163.467ZM164.934 159.955L133.697 191.574L130.522 195.017L164.934 159.955ZM168.276 156.537L136.972 188.224L133.697 191.574L168.276 156.537ZM189.771 137.623L158.04 169.686L158.391 170.046L189.771 137.623ZM189.411 137.256L157.688 169.326L158.04 169.686L189.411 137.256ZM189.051 136.888L157.335 168.965L157.688 169.326L189.051 136.888ZM188.689 136.52L156.98 168.604L157.335 168.965L188.689 136.52ZM188.327 136.151L156.626 168.243L156.98 168.604L188.327 136.151ZM187.965 135.782L156.271 167.88L156.626 168.243L187.965 135.782ZM187.603 135.411L155.916 167.517L156.271 167.88L187.603 135.411ZM187.241 135.04L155.561 167.154L155.916 167.517L187.241 135.04ZM186.88 134.667L155.207 166.788L155.561 167.154L186.88 134.667ZM186.519 134.294L154.853 166.422L155.207 166.788L186.519 134.294ZM186.16 133.918L154.501 166.054L154.853 166.422L186.16 133.918ZM185.802 133.542L154.15 165.685L154.501 166.054L185.802 133.542ZM182.56 135.089L150.973 167.202L154.15 165.685L182.56 135.089ZM179.345 136.689L147.822 168.77L150.973 167.202L179.345 136.689ZM176.157 138.338L144.696 170.387L147.822 168.77L176.157 138.338ZM172.994 140.036L141.597 172.051L144.696 170.387L172.994 140.036ZM169.857 141.78L138.522 173.76L141.597 172.051L169.857 141.78ZM166.745 143.568L135.472 175.512L138.522 173.76L166.745 143.568ZM163.658 145.397L132.445 177.305L135.472 175.512L163.658 145.397ZM160.595 147.265L129.443 179.137L132.445 177.305L160.595 147.265ZM157.555 149.172L126.464 181.005L129.443 179.137L157.555 149.172ZM154.539 151.113L123.508 182.908L126.464 181.005L154.539 151.113ZM151.547 153.088L120.575 184.843L123.508 182.908L151.547 153.088ZM148.576 155.093L117.663 186.809L120.575 184.843L148.576 155.093ZM142.552 159.336L111.758 190.967L117.663 186.809L142.552 159.336ZM136.625 163.714L105.949 195.258L111.758 190.967L136.625 163.714ZM130.799 168.225L100.238 199.68L105.949 195.258L130.799 168.225ZM125.077 172.869L94.6304 204.232L100.238 199.68L125.077 172.869ZM119.464 177.642L89.1285 208.911L94.6304 204.232L119.464 177.642ZM113.963 182.543L83.7364 213.714L89.1285 208.911L113.963 182.543ZM108.577 187.57L78.4576 218.642L83.7364 213.714L108.577 187.57ZM103.311 192.721L73.2959 223.691L78.4576 218.642L103.311 192.721ZM98.1675 197.994L68.2546 228.859L73.2959 223.691L98.1675 197.994ZM29.4447 315.314L0.895418 343.851L0.960141 343.84L29.4447 315.314ZM29.3702 315.326L0.82235 343.863L0.895418 343.851L29.3702 315.326ZM29.2888 315.34L0.742605 343.876L0.82235 343.863L29.2888 315.34ZM29.2024 315.354L0.65787 343.89L0.742605 343.876L29.2024 315.354ZM29.1125 315.369L0.569813 343.905L0.65787 343.89L29.1125 315.369ZM29.021 315.385L0.48007 343.92L0.569813 343.905L29.021 315.385ZM28.9294 315.4L0.390345 343.935L0.48007 343.92L28.9294 315.4ZM28.8396 315.415L0.302271 343.95L0.390345 343.935L28.8396 315.415ZM28.7531 315.429L0.217536 343.964L0.302271 343.95L28.7531 315.429ZM28.6718 315.443L0.137808 343.977L0.217536 343.964L28.6718 315.443ZM28.5972 315.455L0.0647395 343.989L0.137808 343.977L28.5972 315.455ZM28.5312 315.466L0 344L0.0647395 343.989L28.5312 315.466ZM28.5312 294.589L0 323.537V344L28.5312 294.589ZM28.5312 273.713L0 303.075V323.537L28.5312 273.713ZM28.5312 252.838L0 282.614V303.075L28.5312 252.838ZM28.5312 231.964L0 262.154V282.614L28.5312 231.964ZM28.5312 211.09L0 241.695V262.154L28.5312 211.09ZM28.5312 190.217L0 221.236V241.695L28.5312 190.217ZM28.5312 169.344L0 200.777V221.236L28.5312 169.344ZM28.5312 148.47L0 180.318V200.777L28.5312 148.47ZM28.5312 127.596L0 159.858V180.318L28.5312 127.596ZM28.5312 106.721L0 139.397V159.858L28.5312 106.721ZM28.5312 85.8454L0 118.935V139.397L28.5312 85.8454ZM28.5312 64.9679L0 98.4719V118.935L28.5312 64.9679ZM28.5451 63.9255L0.0136428 97.4502L0 98.4719L28.5451 63.9255ZM28.5506 62.8809L0.0190761 96.4263L0.0136428 97.4502L28.5506 62.8809ZM28.5548 61.8351L0.0231298 95.4013L0.0190761 96.4263L28.5548 61.8351ZM28.5644 60.7894L0.0325826 94.3763L0.0231298 95.4013L28.5644 60.7894ZM28.5865 59.7447L0.0542817 93.3524L0.0325826 94.3763L28.5865 59.7447ZM28.6281 58.7024L0.0950058 92.3307L0.0542817 93.3524L28.6281 58.7024ZM28.696 57.6634L0.161568 91.3123L0.0950058 92.3307L28.696 57.6634ZM28.7972 56.629L0.260763 90.2984L0.161568 91.3123L28.7972 56.629ZM28.9387 55.6002L0.399423 89.2901L0.260763 90.2984L28.9387 55.6002ZM29.1273 54.5783L0.584342 88.2884L0.399423 89.2901L29.1273 54.5783ZM29.3701 53.5642L0.822333 87.2945L0.584342 88.2884L29.3701 53.5642ZM29.674 52.5593L1.12019 86.3095L0.822333 87.2945L29.674 52.5593ZM30.1324 51.212L1.56942 84.9889L1.12019 86.3095L30.1324 51.212ZM30.6875 49.9069L2.11353 83.7097L1.56942 84.9889L30.6875 49.9069ZM31.3342 48.6472L2.74738 82.475L2.11353 83.7097L31.3342 48.6472ZM32.0672 47.4359L3.46584 81.2878L2.74738 82.475L32.0672 47.4359ZM32.8812 46.2762L4.26375 80.1511L3.46584 81.2878L32.8812 46.2762ZM33.7711 45.1713L5.13598 79.0681L4.26375 80.1511L33.7711 45.1713ZM230.741 148.87L198.197 180.71L199.279 182.248L230.741 148.87ZM229.634 147.303L197.113 179.174L198.197 180.71L229.634 147.303ZM228.525 145.739L196.025 177.64L197.113 179.174L228.525 145.739ZM227.413 144.175L194.936 176.108L196.025 177.64L227.413 144.175ZM226.3 142.613L193.845 174.577L194.936 176.108L226.3 142.613ZM225.186 141.052L192.753 173.047L193.845 174.577L225.186 141.052ZM224.071 139.491L191.66 171.516L192.753 173.047L224.071 139.491ZM222.955 137.929L190.566 169.985L191.66 171.516L222.955 137.929ZM221.839 136.366L189.473 168.453L190.566 169.985L221.839 136.366ZM220.724 134.801L188.38 166.919L189.473 168.453L220.724 134.801ZM219.61 133.234L187.287 165.383L188.38 166.919L219.61 133.234ZM218.497 131.664L186.196 163.845L187.287 165.383L218.497 131.664ZM221.374 128.724L189.016 160.963L186.196 163.845L221.374 128.724ZM224.249 125.783L191.835 158.081L189.016 160.963L224.249 125.783ZM227.123 122.841L194.652 155.197L191.835 158.081L227.123 122.841ZM229.997 119.898L197.468 152.312L194.652 155.197L229.997 119.898ZM232.87 116.954L200.284 149.427L197.468 152.312L232.87 116.954ZM235.742 114.01L203.1 146.541L200.284 149.427L235.742 114.01ZM238.615 111.066L205.915 143.656L203.1 146.541L238.615 111.066ZM241.488 108.123L208.731 140.771L205.915 143.656L241.488 108.123ZM244.361 105.18L211.548 137.886L208.731 140.771L244.361 105.18ZM247.236 102.237L214.365 135.002L211.548 137.886L247.236 102.237ZM250.111 99.2964L217.183 132.119L214.365 135.002L250.111 99.2964ZM252.988 96.3567L220.003 129.238L217.183 132.119L252.988 96.3567ZM249.049 97.7964L216.142 130.649L220.003 129.238L249.049 97.7964ZM245.11 99.2376L212.282 132.062L216.142 130.649L245.11 99.2376ZM241.171 100.68L208.421 133.476L212.282 132.062L241.171 100.68ZM237.232 102.124L204.56 134.891L208.421 133.476L237.232 102.124ZM233.293 103.569L200.699 136.307L204.56 134.891L233.293 103.569ZM229.354 105.015L196.839 137.725L200.699 136.307L229.354 105.015ZM225.415 106.462L192.978 139.143L196.839 137.725L225.415 106.462ZM221.477 107.91L189.117 140.562L192.978 139.143L221.477 107.91ZM217.538 109.358L185.256 141.981L189.117 140.562L217.538 109.358ZM213.599 110.806L181.396 143.401L185.256 141.981L213.599 110.806ZM209.66 112.255L177.535 144.821L181.396 143.401L209.66 112.255ZM205.721 113.704L173.674 146.241L177.535 144.821L205.721 113.704ZM204.52 112.058L172.497 144.628L173.674 146.241L204.52 112.058ZM203.325 110.407L171.325 143.009L172.497 144.628L203.325 110.407ZM202.134 108.751L170.158 141.386L171.325 143.009L202.134 108.751ZM200.947 107.092L168.995 139.76L170.158 141.386L200.947 107.092ZM199.762 105.431L167.833 138.132L168.995 139.76L199.762 105.431ZM198.578 103.77L166.673 136.504L167.833 138.132L198.578 103.77ZM197.394 102.11L165.512 134.877L166.673 136.504L197.394 102.11ZM196.209 100.452L164.351 133.252L165.512 134.877L196.209 100.452ZM195.022 98.7975L163.187 131.63L164.351 133.252L195.022 98.7975ZM193.831 97.1476L162.02 130.013L163.187 131.63L193.831 97.1476ZM192.636 95.5036L160.848 128.402L162.02 130.013L192.636 95.5036ZM191.435 93.8668L159.671 126.797L160.848 128.402L191.435 93.8668ZM300.757 308.457L299.712 309.259L266.824 337.13L300.757 308.457ZM299.712 309.259L298.622 309.997L265.801 337.916L299.712 309.259ZM298.622 309.997L297.181 310.853L264.732 338.639L298.622 309.997ZM297.181 310.853L295.696 311.629L263.319 339.479L297.181 310.853ZM295.696 311.629L294.173 312.325L261.864 340.239L295.696 311.629ZM294.173 312.325L292.616 312.945L260.371 340.921L294.173 312.325ZM292.616 312.945L291.029 313.489L258.845 341.528L292.616 312.945ZM291.029 313.489L289.418 313.961L257.29 342.062L291.029 313.489ZM289.418 313.961L287.786 314.362L255.71 342.525L289.418 313.961ZM287.786 314.362L286.138 314.695L254.111 342.918L287.786 314.362ZM286.138 314.695L284.479 314.962L252.495 343.244L286.138 314.695ZM284.479 314.962L282.813 315.164L250.869 343.505L284.479 314.962ZM282.813 315.164L281.145 315.304L249.236 343.704L282.813 315.164ZM281.145 315.304L279.479 315.385L247.601 343.841L281.145 315.304ZM279.479 315.385H269.163L245.968 343.92L279.479 315.385ZM269.163 315.385H258.848L235.857 343.92L269.163 315.385ZM258.848 315.385H248.536L225.747 343.92L258.848 315.385ZM248.536 315.385H238.224L215.639 343.92L248.536 315.385ZM238.224 315.385H227.913L205.532 343.92L238.224 315.385ZM227.913 315.385H217.604L195.426 343.92L227.913 315.385ZM217.604 315.385H207.295L185.321 343.92L217.604 315.385ZM207.295 315.385H196.987L175.217 343.92L207.295 315.385ZM196.987 315.385H186.68L165.114 343.92L196.987 315.385ZM186.68 315.385H176.373L155.011 343.92L186.68 315.385ZM176.373 315.385H166.067L144.909 343.92L176.373 315.385ZM166.067 315.385H155.76L134.806 343.92L166.067 315.385ZM155.76 315.385L154.576 315.378L124.704 343.92L155.76 315.385ZM154.576 315.378L153.393 315.376L123.544 343.913L154.576 315.378ZM153.393 315.376L152.209 315.378L122.384 343.911L153.393 315.376ZM152.209 315.378L151.025 315.383L121.224 343.914L152.209 315.378ZM151.025 315.383L149.841 315.389L120.064 343.919L151.025 315.383ZM149.841 315.389L148.658 315.395L118.903 343.924L149.841 315.389ZM148.658 315.395L147.474 315.399L117.743 343.93L148.658 315.395ZM147.474 315.399L146.29 315.4L116.583 343.934L147.474 315.399ZM146.29 315.4L145.107 315.396L115.423 343.935L146.29 315.4ZM145.107 315.396L143.923 315.387L114.262 343.931L145.107 315.396ZM143.923 315.387L142.739 315.37L113.102 343.922L143.923 315.387ZM142.739 315.37L141.555 315.344L111.942 343.905L142.739 315.37ZM141.555 315.344L140.108 311.87L110.782 343.88L141.555 315.344ZM140.108 311.87L138.725 308.369L109.363 340.475L140.108 311.87ZM138.725 308.369L137.411 304.84L108.008 337.043L138.725 308.369ZM137.411 304.84L136.167 301.286L106.72 333.585L137.411 304.84ZM136.167 301.286L134.997 297.707L105.501 330.101L136.167 301.286ZM134.997 297.707L133.902 294.103L104.353 326.593L134.997 297.707ZM133.902 294.103L132.885 290.477L103.28 323.061L133.902 294.103ZM132.885 290.477L131.95 286.829L102.284 319.507L132.885 290.477ZM131.95 286.829L131.097 283.16L101.367 315.931L131.95 286.829ZM131.097 283.16L130.331 279.471L100.531 312.334L131.097 283.16ZM130.331 279.471L129.652 275.762L99.7795 308.718L130.331 279.471ZM129.652 275.762L129.065 272.036L99.1148 305.084L129.652 275.762ZM129.065 272.036L128.47 267.587L98.5393 301.432L129.065 272.036ZM128.47 267.587L128.011 263.121L97.9554 297.071L128.47 267.587ZM128.011 263.121L127.691 258.642L97.5058 292.693L128.011 263.121ZM127.691 258.642L127.514 254.155L97.1928 288.303L127.691 258.642ZM127.514 254.155L127.481 249.666L97.019 283.905L127.514 254.155ZM127.481 249.666L127.596 245.178L96.9869 279.505L127.481 249.666ZM127.596 245.178L127.86 240.698L97.099 275.107L127.596 245.178ZM127.86 240.698L128.276 236.228L97.3578 270.715L127.86 240.698ZM128.276 236.228L128.847 231.776L97.7658 266.334L128.276 236.228ZM128.847 231.776L129.575 227.345L98.3255 261.97L128.847 231.776ZM129.575 227.345L130.464 222.939L99.0394 257.627L129.575 227.345ZM130.464 222.939L131.514 218.565L99.91 253.309L130.464 222.939ZM131.514 218.565L132.488 214.999L100.94 249.021L131.514 218.565ZM132.488 214.999L133.572 211.466L101.895 245.526L132.488 214.999ZM133.572 211.466L134.763 207.968L102.957 242.063L133.572 211.466ZM134.763 207.968L136.059 204.509L104.124 238.635L134.763 207.968ZM136.059 204.509L137.456 201.089L105.394 235.244L136.059 204.509ZM137.456 201.089L138.953 197.712L106.764 231.892L137.456 201.089ZM138.953 197.712L140.547 194.38L108.231 228.582L138.953 197.712ZM140.547 194.38L142.236 191.096L109.794 225.317L140.547 194.38ZM142.236 191.096L144.016 187.862L111.449 222.098L142.236 191.096ZM144.016 187.862L145.886 184.68L113.193 218.927L144.016 187.862ZM145.886 184.68L147.842 181.552L115.026 215.808L145.886 184.68ZM147.842 181.552L149.882 178.482L116.943 212.743L147.842 181.552ZM149.882 178.482L152.652 174.582L118.943 209.734L149.882 178.482ZM152.652 174.582L155.548 170.78L121.658 205.911L152.652 174.582ZM155.548 170.78L158.564 167.075L124.496 202.185L155.548 170.78ZM158.564 167.075L161.695 163.467L127.453 198.553L158.564 167.075ZM161.695 163.467L164.934 159.955L130.522 195.017L161.695 163.467ZM164.934 159.955L168.276 156.537L133.697 191.574L164.934 159.955ZM190.129 137.991L189.771 137.623L158.391 170.046L190.129 137.991ZM189.771 137.623L189.411 137.256L158.04 169.686L189.771 137.623ZM189.411 137.256L189.051 136.888L157.688 169.326L189.411 137.256ZM189.051 136.888L188.689 136.52L157.335 168.965L189.051 136.888ZM188.689 136.52L188.327 136.151L156.98 168.604L188.689 136.52ZM188.327 136.151L187.965 135.782L156.626 168.243L188.327 136.151ZM187.965 135.782L187.603 135.411L156.271 167.88L187.965 135.782ZM187.603 135.411L187.241 135.04L155.916 167.517L187.603 135.411ZM187.241 135.04L186.88 134.667L155.561 167.154L187.241 135.04ZM186.88 134.667L186.519 134.294L155.207 166.788L186.88 134.667ZM186.519 134.294L186.16 133.918L154.853 166.422L186.519 134.294ZM186.16 133.918L185.802 133.542L154.501 166.054L186.16 133.918ZM185.802 133.542L182.56 135.089L154.15 165.685L185.802 133.542ZM182.56 135.089L179.345 136.689L150.973 167.202L182.56 135.089ZM179.345 136.689L176.157 138.338L147.822 168.77L179.345 136.689ZM176.157 138.338L172.994 140.036L144.696 170.387L176.157 138.338ZM172.994 140.036L169.857 141.78L141.597 172.051L172.994 140.036ZM169.857 141.78L166.745 143.568L138.522 173.76L169.857 141.78ZM166.745 143.568L163.658 145.397L135.472 175.512L166.745 143.568ZM163.658 145.397L160.595 147.265L132.445 177.305L163.658 145.397ZM160.595 147.265L157.555 149.172L129.443 179.137L160.595 147.265ZM157.555 149.172L154.539 151.113L126.464 181.005L157.555 149.172ZM154.539 151.113L151.547 153.088L123.508 182.908L154.539 151.113ZM151.547 153.088L148.576 155.093L120.575 184.843L151.547 153.088ZM148.576 155.093L142.552 159.336L117.663 186.809L148.576 155.093ZM142.552 159.336L136.625 163.714L111.758 190.967L142.552 159.336ZM136.625 163.714L130.799 168.225L105.949 195.258L136.625 163.714ZM130.799 168.225L125.077 172.869L100.238 199.68L130.799 168.225ZM125.077 172.869L119.464 177.642L94.6304 204.232L125.077 172.869ZM119.464 177.642L113.963 182.543L89.1285 208.911L119.464 177.642ZM113.963 182.543L108.577 187.57L83.7364 213.714L113.963 182.543ZM108.577 187.57L103.311 192.721L78.4576 218.642L108.577 187.57ZM103.311 192.721L98.1675 197.994L73.2959 223.691L103.311 192.721ZM29.5107 315.303L29.4447 315.314L0.960141 343.84L29.5107 315.303ZM29.4447 315.314L29.3702 315.326L0.895418 343.851L29.4447 315.314ZM29.3702 315.326L29.2888 315.34L0.82235 343.863L29.3702 315.326ZM29.2888 315.34L29.2024 315.354L0.742605 343.876L29.2888 315.34ZM29.2024 315.354L29.1125 315.369L0.65787 343.89L29.2024 315.354ZM29.1125 315.369L29.021 315.385L0.569813 343.905L29.1125 315.369ZM29.021 315.385L28.9294 315.4L0.48007 343.92L29.021 315.385ZM28.9294 315.4L28.8396 315.415L0.390345 343.935L28.9294 315.4ZM28.8396 315.415L28.7531 315.429L0.302271 343.95L28.8396 315.415ZM28.7531 315.429L28.6718 315.443L0.217536 343.964L28.7531 315.429ZM28.6718 315.443L28.5972 315.455L0.137808 343.977L28.6718 315.443ZM28.5972 315.455L28.5312 315.466L0.0647395 343.989L28.5972 315.455ZM28.5312 315.466V294.589L0 344L28.5312 315.466ZM28.5312 294.589V273.713L0 323.537L28.5312 294.589ZM28.5312 273.713V252.838L0 303.075L28.5312 273.713ZM28.5312 252.838V231.964L0 282.614L28.5312 252.838ZM28.5312 231.964V211.09L0 262.154L28.5312 231.964ZM28.5312 211.09V190.217L0 241.695L28.5312 211.09ZM28.5312 190.217V169.344L0 221.236L28.5312 190.217ZM28.5312 169.344V148.47L0 200.777L28.5312 169.344ZM28.5312 148.47V127.596L0 180.318L28.5312 148.47ZM28.5312 127.596V106.721L0 159.858L28.5312 127.596ZM28.5312 106.721V85.8454L0 139.397L28.5312 106.721ZM28.5312 85.8454V64.9679L0 118.935L28.5312 85.8454ZM28.5312 64.9679L28.5451 63.9255L0 98.4719L28.5312 64.9679ZM28.5451 63.9255L28.5506 62.8809L0.0136428 97.4502L28.5451 63.9255ZM28.5506 62.8809L28.5548 61.8351L0.0190761 96.4263L28.5506 62.8809ZM28.5548 61.8351L28.5644 60.7894L0.0231298 95.4013L28.5548 61.8351ZM28.5644 60.7894L28.5865 59.7447L0.0325826 94.3763L28.5644 60.7894ZM28.5865 59.7447L28.6281 58.7024L0.0542817 93.3524L28.5865 59.7447ZM28.6281 58.7024L28.696 57.6634L0.0950058 92.3307L28.6281 58.7024ZM28.696 57.6634L28.7972 56.629L0.161568 91.3123L28.696 57.6634ZM28.7972 56.629L28.9387 55.6002L0.260763 90.2984L28.7972 56.629ZM28.9387 55.6002L29.1273 54.5783L0.399423 89.2901L28.9387 55.6002ZM29.1273 54.5783L29.3701 53.5642L0.584342 88.2884L29.1273 54.5783ZM29.3701 53.5642L29.674 52.5593L0.822333 87.2945L29.3701 53.5642ZM29.674 52.5593L30.1324 51.212L1.12019 86.3095L29.674 52.5593ZM30.1324 51.212L30.6875 49.9069L1.56942 84.9889L30.1324 51.212ZM30.6875 49.9069L31.3342 48.6472L2.11353 83.7097L30.6875 49.9069ZM31.3342 48.6472L32.0672 47.4359L2.74738 82.475L31.3342 48.6472ZM32.0672 47.4359L32.8812 46.2762L3.46584 81.2878L32.0672 47.4359ZM32.8812 46.2762L33.7711 45.1713L4.26375 80.1511L32.8812 46.2762ZM231.844 150.44L230.741 148.87L199.279 182.248L231.844 150.44ZM230.741 148.87L229.634 147.303L198.197 180.71L230.741 148.87ZM229.634 147.303L228.525 145.739L197.113 179.174L229.634 147.303ZM228.525 145.739L227.413 144.175L196.025 177.64L228.525 145.739ZM227.413 144.175L226.3 142.613L194.936 176.108L227.413 144.175ZM226.3 142.613L225.186 141.052L193.845 174.577L226.3 142.613ZM225.186 141.052L224.071 139.491L192.753 173.047L225.186 141.052ZM224.071 139.491L222.955 137.929L191.66 171.516L224.071 139.491ZM222.955 137.929L221.839 136.366L190.566 169.985L222.955 137.929ZM221.839 136.366L220.724 134.801L189.473 168.453L221.839 136.366ZM220.724 134.801L219.61 133.234L188.38 166.919L220.724 134.801ZM219.61 133.234L218.497 131.664L187.287 165.383L219.61 133.234ZM218.497 131.664L221.374 128.724L186.196 163.845L218.497 131.664ZM221.374 128.724L224.249 125.783L189.016 160.963L221.374 128.724ZM224.249 125.783L227.123 122.841L191.835 158.081L224.249 125.783ZM227.123 122.841L229.997 119.898L194.652 155.197L227.123 122.841ZM229.997 119.898L232.87 116.954L197.468 152.312L229.997 119.898ZM232.87 116.954L235.742 114.01L200.284 149.427L232.87 116.954ZM235.742 114.01L238.615 111.066L203.1 146.541L235.742 114.01ZM238.615 111.066L241.488 108.123L205.915 143.656L238.615 111.066ZM241.488 108.123L244.361 105.18L208.731 140.771L241.488 108.123ZM244.361 105.18L247.236 102.237L211.548 137.886L244.361 105.18ZM247.236 102.237L250.111 99.2964L214.365 135.002L247.236 102.237ZM250.111 99.2964L252.988 96.3567L217.183 132.119L250.111 99.2964ZM252.988 96.3567L249.049 97.7964L220.003 129.238L252.988 96.3567ZM249.049 97.7964L245.11 99.2376L216.142 130.649L249.049 97.7964ZM245.11 99.2376L241.171 100.68L212.282 132.062L245.11 99.2376ZM241.171 100.68L237.232 102.124L208.421 133.476L241.171 100.68ZM237.232 102.124L233.293 103.569L204.56 134.891L237.232 102.124ZM233.293 103.569L229.354 105.015L200.699 136.307L233.293 103.569ZM229.354 105.015L225.415 106.462L196.839 137.725L229.354 105.015ZM225.415 106.462L221.477 107.91L192.978 139.143L225.415 106.462ZM221.477 107.91L217.538 109.358L189.117 140.562L221.477 107.91ZM217.538 109.358L213.599 110.806L185.256 141.981L217.538 109.358ZM213.599 110.806L209.66 112.255L181.396 143.401L213.599 110.806ZM209.66 112.255L205.721 113.704L177.535 144.821L209.66 112.255ZM205.721 113.704L204.52 112.058L173.674 146.241L205.721 113.704ZM204.52 112.058L203.325 110.407L172.497 144.628L204.52 112.058ZM203.325 110.407L202.134 108.751L171.325 143.009L203.325 110.407ZM202.134 108.751L200.947 107.092L170.158 141.386L202.134 108.751ZM200.947 107.092L199.762 105.431L168.995 139.76L200.947 107.092ZM199.762 105.431L198.578 103.77L167.833 138.132L199.762 105.431ZM198.578 103.77L197.394 102.11L166.673 136.504L198.578 103.77ZM197.394 102.11L196.209 100.452L165.512 134.877L197.394 102.11ZM196.209 100.452L195.022 98.7975L164.351 133.252L196.209 100.452ZM195.022 98.7975L193.831 97.1476L163.187 131.63L195.022 98.7975ZM193.831 97.1476L192.636 95.5036L162.02 130.013L193.831 97.1476ZM192.636 95.5036L191.435 93.8668L160.848 128.402L192.636 95.5036ZM335.026 279.418L299.712 309.259L300.757 308.457L335.026 279.418ZM333.913 280.171L298.622 309.997L299.712 309.259L333.913 280.171ZM332.441 281.045L297.181 310.853L298.622 309.997L332.441 281.045ZM330.926 281.837L295.696 311.629L297.181 310.853L330.926 281.837ZM329.372 282.547L294.173 312.325L295.696 311.629L329.372 282.547ZM327.782 283.18L292.616 312.945L294.173 312.325L327.782 283.18ZM326.163 283.736L291.029 313.489L292.616 312.945L326.163 283.736ZM324.518 284.217L289.418 313.961L291.029 313.489L324.518 284.217ZM322.852 284.627L287.786 314.362L289.418 313.961L322.852 284.627ZM321.171 284.966L286.138 314.695L287.786 314.362L321.171 284.966ZM319.477 285.238L284.479 314.962L286.138 314.695L319.477 285.238ZM317.777 285.445L282.813 315.164L284.479 314.962L317.777 285.445ZM316.074 285.588L281.145 315.304L282.813 315.164L316.074 285.588ZM314.374 285.67L279.479 315.385L281.145 315.304L314.374 285.67ZM303.845 285.67L269.163 315.385H279.479L303.845 285.67ZM293.317 285.67L258.848 315.385H269.163L293.317 285.67ZM282.791 285.67L248.536 315.385H258.848L282.791 285.67ZM272.267 285.67L238.224 315.385H248.536L272.267 285.67ZM261.743 285.67L227.913 315.385H238.224L261.743 285.67ZM251.221 285.67L217.604 315.385H227.913L251.221 285.67ZM240.699 285.67L207.295 315.385H217.604L240.699 285.67ZM230.178 285.67L196.987 315.385H207.295L230.178 285.67ZM219.658 285.67L186.68 315.385H196.987L219.658 285.67ZM209.138 285.67L176.373 315.385H186.68L209.138 285.67ZM198.618 285.67L166.067 315.385H176.373L198.618 285.67ZM188.099 285.67L155.76 315.385H166.067L188.099 285.67ZM186.891 285.663L154.576 315.378L155.76 315.385L186.891 285.663ZM185.683 285.661L153.393 315.376L154.576 315.378L185.683 285.661ZM184.474 285.664L152.209 315.378L153.393 315.376L184.474 285.664ZM183.266 285.669L151.025 315.383L152.209 315.378L183.266 285.669ZM182.058 285.675L149.841 315.389L151.025 315.383L182.058 285.675ZM180.85 285.68L148.658 315.395L149.841 315.389L180.85 285.68ZM179.642 285.685L147.474 315.399L148.658 315.395L179.642 285.685ZM178.434 285.686L146.29 315.4L147.474 315.399L178.434 285.686ZM177.225 285.682L145.107 315.396L146.29 315.4L177.225 285.682ZM176.017 285.672L143.923 315.387L145.107 315.396L176.017 285.672ZM174.809 285.655L142.739 315.37L143.923 315.387L174.809 285.655ZM173.601 285.628L141.555 315.344L142.739 315.37L173.601 285.628ZM172.123 282.083L140.108 311.87L141.555 315.344L172.123 282.083ZM170.712 278.509L138.725 308.369L140.108 311.87L170.712 278.509ZM169.371 274.908L137.411 304.84L138.725 308.369L169.371 274.908ZM168.102 271.28L136.167 301.286L137.411 304.84L168.102 271.28ZM166.907 267.627L134.997 297.707L136.167 301.286L166.907 267.627ZM165.789 263.949L133.902 294.103L134.997 297.707L165.789 263.949ZM164.752 260.248L132.885 290.477L133.902 294.103L164.752 260.248ZM163.797 256.524L131.95 286.829L132.885 290.477L163.797 256.524ZM162.926 252.779L131.097 283.16L131.95 286.829L162.926 252.779ZM162.144 249.014L130.331 279.471L131.097 283.16L162.144 249.014ZM161.452 245.229L129.652 275.762L130.331 279.471L161.452 245.229ZM160.853 241.426L129.065 272.036L129.652 275.762L160.853 241.426ZM160.245 236.885L128.47 267.587L129.065 272.036L160.245 236.885ZM159.776 232.326L128.011 263.121L128.47 267.587L159.776 232.326ZM159.45 227.755L127.691 258.642L128.011 263.121L159.45 227.755ZM159.269 223.175L127.514 254.155L127.691 258.642L159.269 223.175ZM159.236 218.593L127.481 249.666L127.514 254.155L159.236 218.593ZM159.353 214.013L127.596 245.178L127.481 249.666L159.353 214.013ZM159.622 209.44L127.86 240.698L127.596 245.178L159.622 209.44ZM160.047 204.878L128.276 236.228L127.86 240.698L160.047 204.878ZM160.63 200.334L128.847 231.776L128.276 236.228L160.63 200.334ZM161.373 195.811L129.575 227.345L128.847 231.776L161.373 195.811ZM162.28 191.315L130.464 222.939L129.575 227.345L162.28 191.315ZM163.352 186.85L131.514 218.565L130.464 222.939L163.352 186.85ZM164.346 183.21L132.488 214.999L131.514 218.565L164.346 183.21ZM165.453 179.604L133.572 211.466L132.488 214.999L165.453 179.604ZM166.668 176.034L134.763 207.968L133.572 211.466L166.668 176.034ZM167.99 172.503L136.059 204.509L134.763 207.968L167.99 172.503ZM169.417 169.013L137.456 201.089L136.059 204.509L169.417 169.013ZM170.945 165.566L138.953 197.712L137.456 201.089L170.945 165.566ZM172.572 162.166L140.547 194.38L138.953 197.712L172.572 162.166ZM174.295 158.814L142.236 191.096L140.547 194.38L174.295 158.814ZM176.112 155.512L144.016 187.862L142.236 191.096L176.112 155.512ZM178.02 152.265L145.886 184.68L144.016 187.862L178.02 152.265ZM180.017 149.073L147.842 181.552L145.886 184.68L180.017 149.073ZM182.1 145.939L149.882 178.482L147.842 181.552L182.1 145.939ZM184.926 141.958L152.652 174.582L149.882 178.482L184.926 141.958ZM187.882 138.078L155.548 170.78L152.652 174.582L187.882 138.078ZM190.961 134.297L158.564 167.075L155.548 170.78L190.961 134.297ZM194.157 130.614L161.695 163.467L158.564 167.075L194.157 130.614ZM197.463 127.029L164.934 159.955L161.695 163.467L197.463 127.029ZM200.873 123.541L168.276 156.537L164.934 159.955L200.873 123.541ZM222.812 104.236L189.771 137.623L190.129 137.991L222.812 104.236ZM222.445 103.861L189.411 137.256L189.771 137.623L222.445 103.861ZM222.077 103.486L189.051 136.888L189.411 137.256L222.077 103.486ZM221.709 103.11L188.689 136.52L189.051 136.888L221.709 103.11ZM221.339 102.733L188.327 136.151L188.689 136.52L221.339 102.733ZM220.969 102.356L187.965 135.782L188.327 136.151L220.969 102.356ZM220.6 101.978L187.603 135.411L187.965 135.782L220.6 101.978ZM220.23 101.599L187.241 135.04L187.603 135.411L220.23 101.599ZM219.862 101.219L186.88 134.667L187.241 135.04L219.862 101.219ZM219.494 100.837L186.519 134.294L186.88 134.667L219.494 100.837ZM219.127 100.455L186.16 133.918L186.519 134.294L219.127 100.455ZM218.761 100.07L185.802 133.542L186.16 133.918L218.761 100.07ZM215.453 101.649L182.56 135.089L185.802 133.542L215.453 101.649ZM212.171 103.282L179.345 136.689L182.56 135.089L212.171 103.282ZM208.917 104.966L176.157 138.338L179.345 136.689L208.917 104.966ZM205.689 106.699L172.994 140.036L176.157 138.338L205.689 106.699ZM202.487 108.479L169.857 141.78L172.994 140.036L202.487 108.479ZM199.311 110.303L166.745 143.568L169.857 141.78L199.311 110.303ZM196.16 112.17L163.658 145.397L166.745 143.568L196.16 112.17ZM193.033 114.077L160.595 147.265L163.658 145.397L193.033 114.077ZM189.931 116.023L157.555 149.172L160.595 147.265L189.931 116.023ZM186.853 118.005L154.539 151.113L157.555 149.172L186.853 118.005ZM183.798 120.02L151.547 153.088L154.539 151.113L183.798 120.02ZM180.767 122.067L148.576 155.093L151.547 153.088L180.767 122.067ZM174.618 126.397L142.552 159.336L148.576 155.093L174.618 126.397ZM168.568 130.865L136.625 163.714L142.552 159.336L168.568 130.865ZM162.622 135.47L130.799 168.225L136.625 163.714L162.622 135.47ZM156.782 140.21L125.077 172.869L130.799 168.225L156.782 140.21ZM151.053 145.082L119.464 177.642L125.077 172.869L151.053 145.082ZM145.438 150.084L113.963 182.543L119.464 177.642L145.438 150.084ZM139.941 155.215L108.577 187.57L113.963 182.543L139.941 155.215ZM134.566 160.472L103.311 192.721L108.577 187.57L134.566 160.472ZM129.316 165.854L98.1675 197.994L103.311 192.721L129.316 165.854ZM59.1737 285.598L29.4447 315.314L29.5107 315.303L59.1737 285.598ZM59.0976 285.611L29.3702 315.326L29.4447 315.314L59.0976 285.611ZM59.0146 285.625L29.2888 315.34L29.3702 315.326L59.0146 285.625ZM58.9264 285.639L29.2024 315.354L29.2888 315.34L58.9264 285.639ZM58.8347 285.655L29.1125 315.369L29.2024 315.354L58.8347 285.655ZM58.7412 285.67L29.021 315.385L29.1125 315.369L58.7412 285.67ZM58.6478 285.686L28.9294 315.4L29.021 315.385L58.6478 285.686ZM58.5561 285.701L28.8396 315.415L28.9294 315.4L58.5561 285.701ZM58.4678 285.716L28.7531 315.429L28.8396 315.415L58.4678 285.716ZM58.3848 285.729L28.6718 315.443L28.7531 315.429L58.3848 285.729ZM58.3087 285.742L28.5972 315.455L28.6718 315.443L58.3087 285.742ZM58.2413 285.753L28.5312 315.466L28.5972 315.455L58.2413 285.753ZM58.2413 264.445L28.5312 294.589V315.466L58.2413 264.445ZM58.2413 243.137L28.5312 273.713V294.589L58.2413 243.137ZM58.2413 221.831L28.5312 252.838V273.713L58.2413 221.831ZM58.2413 200.526L28.5312 231.964V252.838L58.2413 200.526ZM58.2413 179.221L28.5312 211.09V231.964L58.2413 179.221ZM58.2413 157.916L28.5312 190.217V211.09L58.2413 157.916ZM58.2413 136.612L28.5312 169.344V190.217L58.2413 136.612ZM58.2413 115.307L28.5312 148.47V169.344L58.2413 115.307ZM58.2413 94.0018L28.5312 127.596V148.47L58.2413 94.0018ZM58.2413 72.6956L28.5312 106.721V127.596L58.2413 72.6956ZM58.2413 51.3882L28.5312 85.8454V106.721L58.2413 51.3882ZM58.2413 30.0794L28.5312 64.9679V85.8454L58.2413 30.0794ZM58.2555 29.0155L28.5451 63.9255L28.5312 64.9679L58.2555 29.0155ZM58.2612 27.9493L28.5506 62.8809L28.5451 63.9255L58.2612 27.9493ZM58.2654 26.8819L28.5548 61.8351L28.5506 62.8809L58.2654 26.8819ZM58.2753 25.8145L28.5644 60.7894L28.5548 61.8351L58.2753 25.8145ZM58.2979 24.7483L28.5865 59.7447L28.5644 60.7894L58.2979 24.7483ZM58.3402 23.6844L28.6281 58.7024L28.5865 59.7447L58.3402 23.6844ZM58.4096 22.624L28.696 57.6634L28.6281 58.7024L58.4096 22.624ZM58.5129 21.5682L28.7972 56.629L28.696 57.6634L58.5129 21.5682ZM58.6573 20.5182L28.9387 55.6002L28.7972 56.629L58.6573 20.5182ZM58.8498 19.4751L29.1273 54.5783L28.9387 55.6002L58.8498 19.4751ZM59.0976 18.4401L29.3701 53.5642L29.1273 54.5783L59.0976 18.4401ZM59.4078 17.4144L29.674 52.5593L29.3701 53.5642L59.4078 17.4144ZM59.8756 16.0393L30.1324 51.212L29.674 52.5593L59.8756 16.0393ZM60.4422 14.7072L30.6875 49.9069L30.1324 51.212L60.4422 14.7072ZM61.1022 13.4215L31.3342 48.6472L30.6875 49.9069L61.1022 13.4215ZM61.8504 12.1852L32.0672 47.4359L31.3342 48.6472L61.8504 12.1852ZM62.6813 11.0016L32.8812 46.2762L32.0672 47.4359L62.6813 11.0016ZM63.5895 9.87378L33.7711 45.1713L32.8812 46.2762L63.5895 9.87378ZM264.629 115.715L230.741 148.87L231.844 150.44L264.629 115.715ZM263.499 114.116L229.634 147.303L230.741 148.87L263.499 114.116ZM262.367 112.519L228.525 145.739L229.634 147.303L262.367 112.519ZM261.233 110.923L227.413 144.175L228.525 145.739L261.233 110.923ZM260.097 109.329L226.3 142.613L227.413 144.175L260.097 109.329ZM258.959 107.736L225.186 141.052L226.3 142.613L258.959 107.736ZM257.821 106.142L224.071 139.491L225.186 141.052L257.821 106.142ZM256.682 104.548L222.955 137.929L224.071 139.491L256.682 104.548ZM255.544 102.952L221.839 136.366L222.955 137.929L255.544 102.952ZM254.405 101.355L220.724 134.801L221.839 136.366L254.405 101.355ZM253.268 99.7559L219.61 133.234L220.724 134.801L253.268 99.7559ZM252.132 98.1536L218.497 131.664L219.61 133.234L252.132 98.1536ZM255.068 95.1532L221.374 128.724L218.497 131.664L255.068 95.1532ZM258.003 92.1513L224.249 125.783L221.374 128.724L258.003 92.1513ZM260.937 89.1483L227.123 122.841L224.249 125.783L260.937 89.1483ZM263.87 86.1444L229.997 119.898L227.123 122.841L263.87 86.1444ZM266.802 83.1399L232.87 116.954L229.997 119.898L266.802 83.1399ZM269.734 80.1352L235.742 114.01L232.87 116.954L269.734 80.1352ZM272.666 77.1304L238.615 111.066L235.742 114.01L272.666 77.1304ZM275.598 74.126L241.488 108.123L238.615 111.066L275.598 74.126ZM278.531 71.1221L244.361 105.18L241.488 108.123L278.531 71.1221ZM281.464 68.1191L247.236 102.237L244.361 105.18L281.464 68.1191ZM284.399 65.1172L250.111 99.2964L247.236 102.237L284.399 65.1172ZM287.336 62.1168L252.988 96.3567L250.111 99.2964L287.336 62.1168ZM283.315 63.5862L249.049 97.7964L252.988 96.3567L283.315 63.5862ZM279.295 65.0572L245.11 99.2376L249.049 97.7964L279.295 65.0572ZM275.275 66.5296L241.171 100.68L245.11 99.2376L275.275 66.5296ZM271.254 68.0033L237.232 102.124L241.171 100.68L271.254 68.0033ZM267.234 69.4782L233.293 103.569L237.232 102.124L267.234 69.4782ZM263.214 70.9541L229.354 105.015L233.293 103.569L263.214 70.9541ZM259.194 72.4309L225.415 106.462L229.354 105.015L259.194 72.4309ZM255.173 73.9084L221.477 107.91L225.415 106.462L255.173 73.9084ZM251.153 75.3865L217.538 109.358L221.477 107.91L251.153 75.3865ZM247.133 76.865L213.599 110.806L217.538 109.358L247.133 76.865ZM243.112 78.3438L209.66 112.255L213.599 110.806L243.112 78.3438ZM239.092 79.8227L205.721 113.704L209.66 112.255L239.092 79.8227ZM237.866 78.1426L204.52 112.058L205.721 113.704L237.866 78.1426ZM236.646 76.4569L203.325 110.407L204.52 112.058L236.646 76.4569ZM235.431 74.7668L202.134 108.751L203.325 110.407L235.431 74.7668ZM234.219 73.0736L200.947 107.092L202.134 108.751L234.219 73.0736ZM233.01 71.3788L199.762 105.431L200.947 107.092L233.01 71.3788ZM231.801 69.6835L198.578 103.77L199.762 105.431L231.801 69.6835ZM230.593 67.989L197.394 102.11L198.578 103.77L230.593 67.989ZM229.384 66.2968L196.209 100.452L197.394 102.11L229.384 66.2968ZM228.172 64.608L195.022 98.7975L196.209 100.452L228.172 64.608ZM226.956 62.924L193.831 97.1476L195.022 98.7975L226.956 62.924ZM225.736 61.246L192.636 95.5036L193.831 97.1476L225.736 61.246ZM224.511 59.5754L191.435 93.8668L192.636 95.5036L224.511 59.5754ZM336.091 278.599L335.026 279.418L300.757 308.457L336.091 278.599ZM335.026 279.418L333.913 280.171L299.712 309.259L335.026 279.418ZM333.913 280.171L332.441 281.045L298.622 309.997L333.913 280.171ZM332.441 281.045L330.926 281.837L297.181 310.853L332.441 281.045ZM330.926 281.837L329.372 282.547L295.696 311.629L330.926 281.837ZM329.372 282.547L327.782 283.18L294.173 312.325L329.372 282.547ZM327.782 283.18L326.163 283.736L292.616 312.945L327.782 283.18ZM326.163 283.736L324.518 284.217L291.029 313.489L326.163 283.736ZM324.518 284.217L322.852 284.627L289.418 313.961L324.518 284.217ZM322.852 284.627L321.171 284.966L287.786 314.362L322.852 284.627ZM321.171 284.966L319.477 285.238L286.138 314.695L321.171 284.966ZM319.477 285.238L317.777 285.445L284.479 314.962L319.477 285.238ZM317.777 285.445L316.074 285.588L282.813 315.164L317.777 285.445ZM316.074 285.588L314.374 285.67L281.145 315.304L316.074 285.588ZM314.374 285.67H303.845L279.479 315.385L314.374 285.67ZM303.845 285.67H293.317L269.163 315.385L303.845 285.67ZM293.317 285.67H282.791L258.848 315.385L293.317 285.67ZM282.791 285.67H272.267L248.536 315.385L282.791 285.67ZM272.267 285.67H261.743L238.224 315.385L272.267 285.67ZM261.743 285.67H251.221L227.913 315.385L261.743 285.67ZM251.221 285.67H240.699L217.604 315.385L251.221 285.67ZM240.699 285.67H230.178L207.295 315.385L240.699 285.67ZM230.178 285.67H219.658L196.987 315.385L230.178 285.67ZM219.658 285.67H209.138L186.68 315.385L219.658 285.67ZM209.138 285.67H198.618L176.373 315.385L209.138 285.67ZM198.618 285.67H188.099L166.067 315.385L198.618 285.67ZM188.099 285.67L186.891 285.663L155.76 315.385L188.099 285.67ZM186.891 285.663L185.683 285.661L154.576 315.378L186.891 285.663ZM185.683 285.661L184.474 285.664L153.393 315.376L185.683 285.661ZM184.474 285.664L183.266 285.669L152.209 315.378L184.474 285.664ZM183.266 285.669L182.058 285.675L151.025 315.383L183.266 285.669ZM182.058 285.675L180.85 285.68L149.841 315.389L182.058 285.675ZM180.85 285.68L179.642 285.685L148.658 315.395L180.85 285.68ZM179.642 285.685L178.434 285.686L147.474 315.399L179.642 285.685ZM178.434 285.686L177.225 285.682L146.29 315.4L178.434 285.686ZM177.225 285.682L176.017 285.672L145.107 315.396L177.225 285.682ZM176.017 285.672L174.809 285.655L143.923 315.387L176.017 285.672ZM174.809 285.655L173.601 285.628L142.739 315.37L174.809 285.655ZM173.601 285.628L172.123 282.083L141.555 315.344L173.601 285.628ZM172.123 282.083L170.712 278.509L140.108 311.87L172.123 282.083ZM170.712 278.509L169.371 274.908L138.725 308.369L170.712 278.509ZM169.371 274.908L168.102 271.28L137.411 304.84L169.371 274.908ZM168.102 271.28L166.907 267.627L136.167 301.286L168.102 271.28ZM166.907 267.627L165.789 263.949L134.997 297.707L166.907 267.627ZM165.789 263.949L164.752 260.248L133.902 294.103L165.789 263.949ZM164.752 260.248L163.797 256.524L132.885 290.477L164.752 260.248ZM163.797 256.524L162.926 252.779L131.95 286.829L163.797 256.524ZM162.926 252.779L162.144 249.014L131.097 283.16L162.926 252.779ZM162.144 249.014L161.452 245.229L130.331 279.471L162.144 249.014ZM161.452 245.229L160.853 241.426L129.652 275.762L161.452 245.229ZM160.853 241.426L160.245 236.885L129.065 272.036L160.853 241.426ZM160.245 236.885L159.776 232.326L128.47 267.587L160.245 236.885ZM159.776 232.326L159.45 227.755L128.011 263.121L159.776 232.326ZM159.45 227.755L159.269 223.175L127.691 258.642L159.45 227.755ZM159.269 223.175L159.236 218.593L127.514 254.155L159.269 223.175ZM159.236 218.593L159.353 214.013L127.481 249.666L159.236 218.593ZM159.353 214.013L159.622 209.44L127.596 245.178L159.353 214.013ZM159.622 209.44L160.047 204.878L127.86 240.698L159.622 209.44ZM160.047 204.878L160.63 200.334L128.276 236.228L160.047 204.878ZM160.63 200.334L161.373 195.811L128.847 231.776L160.63 200.334ZM161.373 195.811L162.28 191.315L129.575 227.345L161.373 195.811ZM162.28 191.315L163.352 186.85L130.464 222.939L162.28 191.315ZM163.352 186.85L164.346 183.21L131.514 218.565L163.352 186.85ZM164.346 183.21L165.453 179.604L132.488 214.999L164.346 183.21ZM165.453 179.604L166.668 176.034L133.572 211.466L165.453 179.604ZM166.668 176.034L167.99 172.503L134.763 207.968L166.668 176.034ZM167.99 172.503L169.417 169.013L136.059 204.509L167.99 172.503ZM169.417 169.013L170.945 165.566L137.456 201.089L169.417 169.013ZM170.945 165.566L172.572 162.166L138.953 197.712L170.945 165.566ZM172.572 162.166L174.295 158.814L140.547 194.38L172.572 162.166ZM174.295 158.814L176.112 155.512L142.236 191.096L174.295 158.814ZM176.112 155.512L178.02 152.265L144.016 187.862L176.112 155.512ZM178.02 152.265L180.017 149.073L145.886 184.68L178.02 152.265ZM180.017 149.073L182.1 145.939L147.842 181.552L180.017 149.073ZM182.1 145.939L184.926 141.958L149.882 178.482L182.1 145.939ZM184.926 141.958L187.882 138.078L152.652 174.582L184.926 141.958ZM187.882 138.078L190.961 134.297L155.548 170.78L187.882 138.078ZM190.961 134.297L194.157 130.614L158.564 167.075L190.961 134.297ZM194.157 130.614L197.463 127.029L161.695 163.467L194.157 130.614ZM197.463 127.029L200.873 123.541L164.934 159.955L197.463 127.029ZM223.178 104.611L222.812 104.236L190.129 137.991L223.178 104.611ZM222.812 104.236L222.445 103.861L189.771 137.623L222.812 104.236ZM222.445 103.861L222.077 103.486L189.411 137.256L222.445 103.861ZM222.077 103.486L221.709 103.11L189.051 136.888L222.077 103.486ZM221.709 103.11L221.339 102.733L188.689 136.52L221.709 103.11ZM221.339 102.733L220.969 102.356L188.327 136.151L221.339 102.733ZM220.969 102.356L220.6 101.978L187.965 135.782L220.969 102.356ZM220.6 101.978L220.23 101.599L187.603 135.411L220.6 101.978ZM220.23 101.599L219.862 101.219L187.241 135.04L220.23 101.599ZM219.862 101.219L219.494 100.837L186.88 134.667L219.862 101.219ZM219.494 100.837L219.127 100.455L186.519 134.294L219.494 100.837ZM219.127 100.455L218.761 100.07L186.16 133.918L219.127 100.455ZM218.761 100.07L215.453 101.649L185.802 133.542L218.761 100.07ZM215.453 101.649L212.171 103.282L182.56 135.089L215.453 101.649ZM212.171 103.282L208.917 104.966L179.345 136.689L212.171 103.282ZM208.917 104.966L205.689 106.699L176.157 138.338L208.917 104.966ZM205.689 106.699L202.487 108.479L172.994 140.036L205.689 106.699ZM202.487 108.479L199.311 110.303L169.857 141.78L202.487 108.479ZM199.311 110.303L196.16 112.17L166.745 143.568L199.311 110.303ZM196.16 112.17L193.033 114.077L163.658 145.397L196.16 112.17ZM193.033 114.077L189.931 116.023L160.595 147.265L193.033 114.077ZM189.931 116.023L186.853 118.005L157.555 149.172L189.931 116.023ZM186.853 118.005L183.798 120.02L154.539 151.113L186.853 118.005ZM183.798 120.02L180.767 122.067L151.547 153.088L183.798 120.02ZM180.767 122.067L174.618 126.397L148.576 155.093L180.767 122.067ZM174.618 126.397L168.568 130.865L142.552 159.336L174.618 126.397ZM168.568 130.865L162.622 135.47L136.625 163.714L168.568 130.865ZM162.622 135.47L156.782 140.21L130.799 168.225L162.622 135.47ZM156.782 140.21L151.053 145.082L125.077 172.869L156.782 140.21ZM151.053 145.082L145.438 150.084L119.464 177.642L151.053 145.082ZM145.438 150.084L139.941 155.215L113.963 182.543L145.438 150.084ZM139.941 155.215L134.566 160.472L108.577 187.57L139.941 155.215ZM134.566 160.472L129.316 165.854L103.311 192.721L134.566 160.472ZM59.2411 285.587L59.1737 285.598L29.5107 315.303L59.2411 285.587ZM59.1737 285.598L59.0976 285.611L29.4447 315.314L59.1737 285.598ZM59.0976 285.611L59.0146 285.625L29.3702 315.326L59.0976 285.611ZM59.0146 285.625L58.9264 285.639L29.2888 315.34L59.0146 285.625ZM58.9264 285.639L58.8347 285.655L29.2024 315.354L58.9264 285.639ZM58.8347 285.655L58.7412 285.67L29.1125 315.369L58.8347 285.655ZM58.7412 285.67L58.6478 285.686L29.021 315.385L58.7412 285.67ZM58.6478 285.686L58.5561 285.701L28.9294 315.4L58.6478 285.686ZM58.5561 285.701L58.4678 285.716L28.8396 315.415L58.5561 285.701ZM58.4678 285.716L58.3848 285.729L28.7531 315.429L58.4678 285.716ZM58.3848 285.729L58.3087 285.742L28.6718 315.443L58.3848 285.729ZM58.3087 285.742L58.2413 285.753L28.5972 315.455L58.3087 285.742ZM58.2413 285.753V264.445L28.5312 315.466L58.2413 285.753ZM58.2413 264.445V243.137L28.5312 294.589L58.2413 264.445ZM58.2413 243.137V221.831L28.5312 273.713L58.2413 243.137ZM58.2413 221.831V200.526L28.5312 252.838L58.2413 221.831ZM58.2413 200.526V179.221L28.5312 231.964L58.2413 200.526ZM58.2413 179.221V157.916L28.5312 211.09L58.2413 179.221ZM58.2413 157.916V136.612L28.5312 190.217L58.2413 157.916ZM58.2413 136.612V115.307L28.5312 169.344L58.2413 136.612ZM58.2413 115.307V94.0018L28.5312 148.47L58.2413 115.307ZM58.2413 94.0018V72.6956L28.5312 127.596L58.2413 94.0018ZM58.2413 72.6956V51.3882L28.5312 106.721L58.2413 72.6956ZM58.2413 51.3882V30.0794L28.5312 85.8454L58.2413 51.3882ZM58.2413 30.0794L58.2555 29.0155L28.5312 64.9679L58.2413 30.0794ZM58.2555 29.0155L58.2612 27.9493L28.5451 63.9255L58.2555 29.0155ZM58.2612 27.9493L58.2654 26.8819L28.5506 62.8809L58.2612 27.9493ZM58.2654 26.8819L58.2753 25.8145L28.5548 61.8351L58.2654 26.8819ZM58.2753 25.8145L58.2979 24.7483L28.5644 60.7894L58.2753 25.8145ZM58.2979 24.7483L58.3402 23.6844L28.5865 59.7447L58.2979 24.7483ZM58.3402 23.6844L58.4096 22.624L28.6281 58.7024L58.3402 23.6844ZM58.4096 22.624L58.5129 21.5682L28.696 57.6634L58.4096 22.624ZM58.5129 21.5682L58.6573 20.5182L28.7972 56.629L58.5129 21.5682ZM58.6573 20.5182L58.8498 19.4751L28.9387 55.6002L58.6573 20.5182ZM58.8498 19.4751L59.0976 18.4401L29.1273 54.5783L58.8498 19.4751ZM59.0976 18.4401L59.4078 17.4144L29.3701 53.5642L59.0976 18.4401ZM59.4078 17.4144L59.8756 16.0393L29.674 52.5593L59.4078 17.4144ZM59.8756 16.0393L60.4422 14.7072L30.1324 51.212L59.8756 16.0393ZM60.4422 14.7072L61.1022 13.4215L30.6875 49.9069L60.4422 14.7072ZM61.1022 13.4215L61.8504 12.1852L31.3342 48.6472L61.1022 13.4215ZM61.8504 12.1852L62.6813 11.0016L32.0672 47.4359L61.8504 12.1852ZM62.6813 11.0016L63.5895 9.87378L32.8812 46.2762L62.6813 11.0016ZM265.755 117.318L264.629 115.715L231.844 150.44L265.755 117.318ZM264.629 115.715L263.499 114.116L230.741 148.87L264.629 115.715ZM263.499 114.116L262.367 112.519L229.634 147.303L263.499 114.116ZM262.367 112.519L261.233 110.923L228.525 145.739L262.367 112.519ZM261.233 110.923L260.097 109.329L227.413 144.175L261.233 110.923ZM260.097 109.329L258.959 107.736L226.3 142.613L260.097 109.329ZM258.959 107.736L257.821 106.142L225.186 141.052L258.959 107.736ZM257.821 106.142L256.682 104.548L224.071 139.491L257.821 106.142ZM256.682 104.548L255.544 102.952L222.955 137.929L256.682 104.548ZM255.544 102.952L254.405 101.355L221.839 136.366L255.544 102.952ZM254.405 101.355L253.268 99.7559L220.724 134.801L254.405 101.355ZM253.268 99.7559L252.132 98.1536L219.61 133.234L253.268 99.7559ZM252.132 98.1536L255.068 95.1532L218.497 131.664L252.132 98.1536ZM255.068 95.1532L258.003 92.1513L221.374 128.724L255.068 95.1532ZM258.003 92.1513L260.937 89.1483L224.249 125.783L258.003 92.1513ZM260.937 89.1483L263.87 86.1444L227.123 122.841L260.937 89.1483ZM263.87 86.1444L266.802 83.1399L229.997 119.898L263.87 86.1444ZM266.802 83.1399L269.734 80.1352L232.87 116.954L266.802 83.1399ZM269.734 80.1352L272.666 77.1304L235.742 114.01L269.734 80.1352ZM272.666 77.1304L275.598 74.126L238.615 111.066L272.666 77.1304ZM275.598 74.126L278.531 71.1221L241.488 108.123L275.598 74.126ZM278.531 71.1221L281.464 68.1191L244.361 105.18L278.531 71.1221ZM281.464 68.1191L284.399 65.1172L247.236 102.237L281.464 68.1191ZM284.399 65.1172L287.336 62.1168L250.111 99.2964L284.399 65.1172ZM287.336 62.1168L283.315 63.5862L252.988 96.3567L287.336 62.1168ZM283.315 63.5862L279.295 65.0572L249.049 97.7964L283.315 63.5862ZM279.295 65.0572L275.275 66.5296L245.11 99.2376L279.295 65.0572ZM275.275 66.5296L271.254 68.0033L241.171 100.68L275.275 66.5296ZM271.254 68.0033L267.234 69.4782L237.232 102.124L271.254 68.0033ZM267.234 69.4782L263.214 70.9541L233.293 103.569L267.234 69.4782ZM263.214 70.9541L259.194 72.4309L229.354 105.015L263.214 70.9541ZM259.194 72.4309L255.173 73.9084L225.415 106.462L259.194 72.4309ZM255.173 73.9084L251.153 75.3865L221.477 107.91L255.173 73.9084ZM251.153 75.3865L247.133 76.865L217.538 109.358L251.153 75.3865ZM247.133 76.865L243.112 78.3438L213.599 110.806L247.133 76.865ZM243.112 78.3438L239.092 79.8227L209.66 112.255L243.112 78.3438ZM239.092 79.8227L237.866 78.1426L205.721 113.704L239.092 79.8227ZM237.866 78.1426L236.646 76.4569L204.52 112.058L237.866 78.1426ZM236.646 76.4569L235.431 74.7668L203.325 110.407L236.646 76.4569ZM235.431 74.7668L234.219 73.0736L202.134 108.751L235.431 74.7668ZM234.219 73.0736L233.01 71.3788L200.947 107.092L234.219 73.0736ZM233.01 71.3788L231.801 69.6835L199.762 105.431L233.01 71.3788ZM231.801 69.6835L230.593 67.989L198.578 103.77L231.801 69.6835ZM230.593 67.989L229.384 66.2968L197.394 102.11L230.593 67.989ZM229.384 66.2968L228.172 64.608L196.209 100.452L229.384 66.2968ZM228.172 64.608L226.956 62.924L195.022 98.7975L228.172 64.608ZM226.956 62.924L225.736 61.246L193.831 97.1476L226.956 62.924ZM225.736 61.246L224.511 59.5754L192.636 95.5036L225.736 61.246Z" fill="#A9BCCE"/>
<path d="M73.1924 3.10915L71.7635 3.75104L70.3631 4.45773L73.1924 3.10915ZM76.1247 2.01516L74.647 2.53091L73.1924 3.10915L76.1247 2.01516ZM79.138 1.16651L77.6226 1.56075L76.1247 2.01516L79.138 1.16651ZM82.2103 0.553939L80.6681 0.831292L79.138 1.16651L82.2103 0.553939ZM85.3196 0.168185L83.7617 0.333287L82.2103 0.553939L85.3196 0.168185ZM88.444 0L86.8813 0.0574752L85.3196 0.168185L88.444 0ZM316.482 0.114593L314.414 0H295.583L316.482 0.114593ZM320.626 0.609941L318.556 0.316127L316.482 0.114593L320.626 0.609941ZM324.715 1.49587L322.683 1.00141L320.626 0.609941L324.715 1.49587ZM328.67 2.81519L326.714 2.09868L324.715 1.49587L328.67 2.81519ZM332.411 4.61071L330.572 3.65075L328.67 2.81519L332.411 4.61071ZM335.861 6.92526L334.178 5.70043L332.411 4.61071L335.861 6.92526ZM338.576 9.42791L337.452 8.29055L335.861 6.92526L338.576 9.42791ZM340.51 11.9405L339.596 10.6473L338.576 9.42791L340.51 11.9405ZM342.031 14.7151L341.322 13.2991L340.51 11.9405L342.031 14.7151ZM343.146 17.6859L342.639 16.1801L342.031 14.7151L343.146 17.6859ZM343.862 20.7869L343.553 19.2243L343.146 17.6859L343.862 20.7869ZM344.185 23.9522L344.072 22.3656L343.862 20.7869L344.185 23.9522ZM344.228 44.6407L344.201 25.5382L344.185 23.9522L344.228 44.6407ZM344.255 82.8496L344.245 63.7445L344.228 44.6407L344.255 82.8496ZM344.258 121.062L344.258 101.955L344.255 82.8496L344.258 121.062ZM344.248 159.275L344.253 140.169L344.258 121.062L344.248 159.275ZM344.239 255.864L344.243 254.799L344.236 235.697L344.239 255.864ZM344.255 259.076L344.252 258.004L344.245 256.932L344.255 259.076ZM344.222 261.22L344.248 260.149L344.255 259.076L344.222 261.22ZM344.092 263.354L344.173 262.289L344.222 261.22L344.092 263.354ZM343.811 265.466L343.974 264.413L344.092 263.354L343.811 265.466ZM343.327 267.547L343.598 266.511L343.811 265.466L343.327 267.547ZM342.467 270.091L342.939 268.835L343.327 267.547L342.467 270.091ZM341.284 272.496L341.914 271.313L342.467 270.091L341.284 272.496ZM339.806 274.734L340.58 273.637L341.284 272.496L339.806 274.734ZM338.065 276.778L338.967 275.782L339.806 274.734L338.065 276.778ZM336.09 278.599L337.105 277.718L338.065 276.778L336.09 278.599ZM333.911 280.171L335.024 279.418L336.09 278.599L333.911 280.171ZM330.925 281.837L332.44 281.045L333.911 280.171L330.925 281.837ZM327.781 283.18L329.37 282.547L330.925 281.837L327.781 283.18ZM324.517 284.217L326.161 283.735L327.781 283.18L324.517 284.217ZM321.169 284.966L322.851 284.627L324.517 284.217L321.169 284.966ZM317.775 285.445L319.476 285.238L321.169 284.966L317.775 285.445ZM314.372 285.67L316.072 285.588L317.775 285.445L314.372 285.67ZM180.848 285.68L182.056 285.675L183.265 285.668L180.848 285.68ZM178.432 285.685L179.64 285.685L180.848 285.68L178.432 285.685ZM176.016 285.672L177.224 285.682L178.432 285.685L176.016 285.672ZM173.599 285.628L174.807 285.655L176.016 285.672L173.599 285.628ZM170.711 278.509L172.122 282.083L173.599 285.628L170.711 278.509ZM168.1 271.28L169.369 274.908L170.711 278.509L168.1 271.28ZM165.788 263.949L166.905 267.627L168.1 271.28L165.788 263.949ZM163.795 256.524L164.75 260.248L165.788 263.949L163.795 256.524ZM162.142 249.014L162.925 252.779L163.795 256.524L162.142 249.014ZM160.851 241.426L161.45 245.229L162.142 249.014L160.851 241.426ZM159.775 232.326L160.243 236.885L160.851 241.426L159.775 232.326ZM159.268 223.175L159.449 227.755L159.775 232.326L159.268 223.175ZM159.351 214.013L159.234 218.593L159.268 223.175L159.351 214.013ZM160.046 204.878L159.621 209.44L159.351 214.013L160.046 204.878ZM161.372 195.811L160.628 200.334L160.046 204.878L161.372 195.811ZM163.351 186.85L162.278 191.315L161.372 195.811L163.351 186.85ZM165.451 179.604L164.345 183.21L163.351 186.85L165.451 179.604ZM167.989 172.503L166.667 176.034L165.451 179.604L167.989 172.503ZM170.943 165.566L169.415 169.013L167.989 172.503L170.943 165.566ZM174.294 158.814L172.57 162.166L170.943 165.566L174.294 158.814ZM178.019 152.264L176.111 155.512L174.294 158.814L178.019 152.264ZM182.098 145.939L180.015 149.072L178.019 152.264L182.098 145.939ZM187.881 138.078L184.925 141.958L182.098 145.939L187.881 138.078ZM194.155 130.614L190.96 134.296L187.881 138.078L194.155 130.614ZM200.872 123.541L197.461 127.029L194.155 130.614L200.872 123.541ZM207.98 116.853L204.38 120.149L200.872 123.541L207.98 116.853ZM215.432 110.545L211.666 113.652L207.98 116.853L215.432 110.545ZM223.176 104.611L219.27 107.532L215.432 110.545L223.176 104.611ZM220.968 102.356L221.338 102.733L221.707 103.11L220.968 102.356ZM220.229 101.599L220.598 101.978L220.968 102.356L220.229 101.599ZM219.492 100.837L219.86 101.219L220.229 101.599L219.492 100.837ZM218.76 100.07L219.125 100.454L219.492 100.837L218.76 100.07ZM59.1722 285.598L59.2396 285.587L59.9932 283.223L59.1722 285.598ZM58.2397 264.444V285.753L58.3072 285.742L58.2397 264.444ZM225.402 68.2617L225.107 65.3662L224.81 62.4708L225.402 68.2617ZM225.988 74.0526L225.696 71.1571L225.402 68.2617L225.988 74.0526ZM228.045 94.4685L228.05 94.3207L227.75 91.4252L228.045 94.4685ZM228.941 95.3741L228.826 95.3043L228.706 95.2346L228.941 95.3741ZM235.171 99.0909L232.111 97.2682L229.05 95.4455L235.171 99.0909ZM241.288 102.736L238.23 100.914L235.171 99.0909L241.288 102.736ZM247.402 106.382L244.345 104.559L241.288 102.736L247.402 106.382ZM255.542 102.952L256.681 104.548L257.819 106.142L255.542 102.952ZM253.266 99.7558L254.404 101.355L255.542 102.952L253.266 99.7558ZM255.067 95.1531L252.13 98.1535L253.266 99.7558L255.067 95.1531ZM275.596 74.1259L272.664 77.1303L269.732 80.1351L275.596 74.1259ZM281.463 68.1189L278.529 71.122L275.596 74.1259L281.463 68.1189ZM287.334 62.1167L284.398 65.1171L281.463 68.1189L287.334 62.1167ZM237.865 78.1425L239.09 79.8226L243.111 78.3437L237.865 78.1425ZM235.43 74.7667L236.645 76.4568L237.865 78.1425L235.43 74.7667ZM233.008 71.3787L234.218 73.0735L235.43 74.7667L233.008 71.3787ZM58.2397 30.0793V51.3881L224.509 59.5753L58.2397 30.0793ZM58.2737 25.8144L58.2638 26.8818L58.2596 27.9492L58.2737 25.8144ZM58.3387 23.6843L58.2963 24.7482L58.2737 25.8144L58.3387 23.6843ZM58.5113 21.5681L58.408 22.6239L58.3387 23.6843L58.5113 21.5681ZM58.8482 19.475L58.6557 20.5181L58.5113 21.5681L58.8482 19.475ZM59.4062 17.4143L59.0961 18.44L58.8482 19.475L59.4062 17.4143ZM60.4406 14.7071L59.874 16.0392L59.4062 17.4143L60.4406 14.7071ZM61.8488 12.1851L61.1007 13.4214L60.4406 14.7071L61.8488 12.1851ZM63.588 9.87367L62.6797 11.0015L61.8488 12.1851L63.588 9.87367ZM65.6153 7.79833L64.5683 8.8049L63.588 9.87367L65.6153 7.79833ZM67.8879 5.98454L66.7236 6.85716L65.6153 7.79833L67.8879 5.98454ZM70.3631 4.45773L69.1029 5.18367L67.8879 5.98454L70.3631 4.45773ZM76.1247 2.01516L73.1924 3.10915L70.3631 4.45773L76.1247 2.01516ZM82.2103 0.553939L79.138 1.16651L76.1247 2.01516L82.2103 0.553939ZM88.444 0L85.3196 0.168185L82.2103 0.553939L88.444 0ZM316.482 0.114593L295.583 0H276.752L316.482 0.114593ZM324.715 1.49587L320.626 0.609941L316.482 0.114593L324.715 1.49587ZM332.411 4.61071L328.67 2.81519L324.715 1.49587L332.411 4.61071ZM338.576 9.42791L335.861 6.92526L332.411 4.61071L338.576 9.42791ZM342.031 14.7151L340.51 11.9405L338.576 9.42791L342.031 14.7151ZM343.862 20.7869L343.146 17.6859L342.031 14.7151L343.862 20.7869ZM344.228 44.6407L344.185 23.9522L343.862 20.7869L344.228 44.6407ZM344.258 121.062L344.255 82.8496L344.228 44.6407L344.258 121.062ZM344.242 178.382L344.248 159.275L344.258 121.062L344.242 178.382ZM344.222 261.22L344.255 259.076L344.245 256.932L344.222 261.22ZM343.811 265.466L344.092 263.354L344.222 261.22L343.811 265.466ZM342.467 270.091L343.327 267.547L343.811 265.466L342.467 270.091ZM339.806 274.734L341.284 272.496L342.467 270.091L339.806 274.734ZM336.09 278.599L338.065 276.778L339.806 274.734L336.09 278.599ZM330.925 281.837L333.911 280.171L336.09 278.599L330.925 281.837ZM324.517 284.217L327.781 283.18L330.925 281.837L324.517 284.217ZM317.775 285.445L321.169 284.966L324.517 284.217L317.775 285.445ZM303.843 285.67H314.372L317.775 285.445L303.843 285.67ZM186.889 285.663L188.097 285.67H209.136L186.889 285.663ZM178.432 285.685L180.848 285.68L183.265 285.668L178.432 285.685ZM173.599 285.628L176.016 285.672L178.432 285.685L173.599 285.628ZM168.1 271.28L170.711 278.509L173.599 285.628L168.1 271.28ZM163.795 256.524L165.788 263.949L168.1 271.28L163.795 256.524ZM160.851 241.426L162.142 249.014L163.795 256.524L160.851 241.426ZM159.268 223.175L159.775 232.326L160.851 241.426L159.268 223.175ZM160.046 204.878L159.351 214.013L159.268 223.175L160.046 204.878ZM163.351 186.85L161.372 195.811L160.046 204.878L163.351 186.85ZM167.989 172.503L165.451 179.604L163.351 186.85L167.989 172.503ZM174.294 158.814L170.943 165.566L167.989 172.503L174.294 158.814ZM182.098 145.939L178.019 152.264L174.294 158.814L182.098 145.939ZM194.155 130.614L187.881 138.078L182.098 145.939L194.155 130.614ZM207.98 116.853L200.872 123.541L194.155 130.614L207.98 116.853ZM223.176 104.611L215.432 110.545L207.98 116.853L223.176 104.611ZM220.968 102.356L221.707 103.11L222.076 103.485L220.968 102.356ZM219.492 100.837L220.229 101.599L220.968 102.356L219.492 100.837ZM59.1722 285.598L59.9932 283.223L60.7556 280.863L59.1722 285.598ZM58.8331 285.654L59.013 285.624L59.1722 285.598L58.8331 285.654ZM58.2397 264.444L58.3072 285.742L58.3832 285.729L58.2397 264.444ZM225.988 74.0526L225.402 68.2617L224.81 62.4708L225.988 74.0526ZM228.045 94.4685L227.75 91.4252L227.452 88.5298L228.045 94.4685ZM229.05 95.4455L228.941 95.3741L228.706 95.2346L229.05 95.4455ZM241.288 102.736L235.171 99.0909L229.05 95.4455L241.288 102.736ZM250.459 108.204L247.402 106.382L241.288 102.736L250.459 108.204ZM255.542 102.952L257.819 106.142L258.958 107.736L255.542 102.952ZM255.067 95.1531L253.266 99.7558L255.542 102.952L255.067 95.1531ZM275.596 74.1259L269.732 80.1351L266.8 83.1398L275.596 74.1259ZM287.334 62.1167L281.463 68.1189L275.596 74.1259L287.334 62.1167ZM237.865 78.1425L243.111 78.3437L247.131 76.8649L237.865 78.1425ZM233.008 71.3787L235.43 74.7667L237.865 78.1425L233.008 71.3787ZM58.254 29.0154L58.2397 30.0793L224.509 59.5753L58.254 29.0154ZM58.2737 25.8144L58.2596 27.9492L58.254 29.0154L58.2737 25.8144ZM58.5113 21.5681L58.3387 23.6843L58.2737 25.8144L58.5113 21.5681ZM59.4062 17.4143L58.8482 19.475L58.5113 21.5681L59.4062 17.4143ZM61.8488 12.1851L60.4406 14.7071L59.4062 17.4143L61.8488 12.1851ZM65.6153 7.79833L63.588 9.87367L61.8488 12.1851L65.6153 7.79833ZM70.3631 4.45773L67.8879 5.98454L65.6153 7.79833L70.3631 4.45773ZM82.2103 0.553939L76.1247 2.01516L70.3631 4.45773L82.2103 0.553939ZM107.275 0H88.444L82.2103 0.553939L107.275 0ZM316.482 0.114593L276.752 0H257.921L316.482 0.114593ZM332.411 4.61071L324.715 1.49587L316.482 0.114593L332.411 4.61071ZM342.031 14.7151L338.576 9.42791L332.411 4.61071L342.031 14.7151ZM344.228 44.6407L343.862 20.7869L342.031 14.7151L344.228 44.6407ZM344.242 178.382L344.258 121.062L344.228 44.6407L344.242 178.382ZM344.222 261.22L344.245 256.932L344.239 255.864L344.222 261.22ZM342.467 270.091L343.811 265.466L344.222 261.22L342.467 270.091ZM336.09 278.599L339.806 274.734L342.467 270.091L336.09 278.599ZM324.517 284.217L330.925 281.837L336.09 278.599L324.517 284.217ZM303.843 285.67L317.775 285.445L324.517 284.217L303.843 285.67ZM186.889 285.663L209.136 285.67H219.656L186.889 285.663ZM178.432 285.685L183.265 285.668L184.473 285.663L178.432 285.685ZM168.1 271.28L173.599 285.628L178.432 285.685L168.1 271.28ZM160.851 241.426L163.795 256.524L168.1 271.28L160.851 241.426ZM160.046 204.878L159.268 223.175L160.851 241.426L160.046 204.878ZM167.989 172.503L163.351 186.85L160.046 204.878L167.989 172.503ZM182.098 145.939L174.294 158.814L167.989 172.503L182.098 145.939ZM207.98 116.853L194.155 130.614L182.098 145.939L207.98 116.853ZM219.492 100.837L220.968 102.356L222.076 103.485L219.492 100.837ZM59.1722 285.598L60.7556 280.863L61.5283 278.506L59.1722 285.598ZM58.2397 264.444L58.3832 285.729L58.4663 285.716L58.2397 264.444ZM226.571 79.8435L225.988 74.0526L224.81 62.4708L226.571 79.8435ZM228.045 94.4685L227.452 88.5298L227.157 85.6343L228.045 94.4685ZM229.05 95.4455L228.706 95.2346L228.587 95.1632L229.05 95.4455ZM250.459 108.204L241.288 102.736L229.05 95.4455L250.459 108.204ZM255.067 95.1531L255.542 102.952L258.958 107.736L255.067 95.1531ZM287.334 62.1167L275.596 74.1259L266.8 83.1398L287.334 62.1167ZM237.865 78.1425L247.131 76.8649L251.151 75.3864L237.865 78.1425ZM231.8 69.6834L233.008 71.3787L237.865 78.1425L231.8 69.6834ZM58.2737 25.8144L58.254 29.0154L224.509 59.5753L58.2737 25.8144ZM59.4062 17.4143L58.5113 21.5681L58.2737 25.8144L59.4062 17.4143ZM65.6153 7.79833L61.8488 12.1851L59.4062 17.4143L65.6153 7.79833ZM82.2103 0.553939L70.3631 4.45773L65.6153 7.79833L82.2103 0.553939ZM126.106 0H107.275L82.2103 0.553939L126.106 0ZM316.482 0.114593L257.921 0H239.09L316.482 0.114593ZM342.031 14.7151L332.411 4.61071L316.482 0.114593L342.031 14.7151ZM344.242 178.382L344.228 44.6407L342.031 14.7151L344.242 178.382ZM344.222 261.22L344.239 255.864L344.236 235.697L344.222 261.22ZM336.09 278.599L342.467 270.091L344.222 261.22L336.09 278.599ZM303.843 285.67L324.517 284.217L336.09 278.599L303.843 285.67ZM186.889 285.663L219.656 285.67H261.742L186.889 285.663ZM168.1 271.28L178.432 285.685L184.473 285.663L168.1 271.28ZM160.046 204.878L160.851 241.426L168.1 271.28L160.046 204.878ZM182.098 145.939L167.989 172.503L160.046 204.878L182.098 145.939ZM223.176 104.611L207.98 116.853L182.098 145.939L223.176 104.611ZM219.492 100.837L222.076 103.485L222.444 103.861L219.492 100.837ZM58.6462 285.686L59.1722 285.598L61.5283 278.506L58.6462 285.686ZM58.2397 264.444L58.4663 285.716L58.5545 285.701L58.2397 264.444ZM226.864 82.7389L226.571 79.8435L224.81 62.4708L226.864 82.7389ZM228.045 94.4685L227.157 85.6343L226.864 82.7389L228.045 94.4685ZM253.516 110.027L250.459 108.204L229.05 95.4455L253.516 110.027ZM255.067 95.1531L258.958 107.736L260.095 109.329L255.067 95.1531ZM287.334 62.1167L266.8 83.1398L263.868 86.1443L287.334 62.1167ZM237.865 78.1425L251.151 75.3864L255.172 73.9083L237.865 78.1425ZM230.591 67.9889L231.8 69.6834L237.865 78.1425L230.591 67.9889ZM59.4062 17.4143L58.2737 25.8144L224.509 59.5753L59.4062 17.4143ZM82.2103 0.553939L65.6153 7.79833L59.4062 17.4143L82.2103 0.553939ZM144.936 0H126.106L82.2103 0.553939L144.936 0ZM316.482 0.114593L239.09 0H220.26L316.482 0.114593ZM344.242 178.382L342.031 14.7151L316.482 0.114593L344.242 178.382ZM344.222 261.22L344.236 235.697L344.234 216.593L344.222 261.22ZM303.843 285.67L336.09 278.599L344.222 261.22L303.843 285.67ZM186.889 285.663L261.742 285.67H303.843L186.889 285.663ZM168.1 271.28L184.473 285.663L185.681 285.661L168.1 271.28ZM182.098 145.939L160.046 204.878L168.1 271.28L182.098 145.939ZM219.492 100.837L222.444 103.861L222.811 104.236L219.492 100.837ZM58.6462 285.686L61.5283 278.506L62.3132 276.153L58.6462 285.686ZM58.2397 264.444L58.5545 285.701L58.6462 285.686L58.2397 264.444ZM228.045 94.4685L226.864 82.7389L224.81 62.4708L228.045 94.4685ZM256.574 111.85L253.516 110.027L229.05 95.4455L256.574 111.85ZM255.067 95.1531L260.095 109.329L261.231 110.923L255.067 95.1531ZM287.334 62.1167L263.868 86.1443L260.935 89.1482L287.334 62.1167ZM237.865 78.1425L255.172 73.9083L259.192 72.4308L237.865 78.1425ZM229.382 66.2967L230.591 67.9889L237.865 78.1425L229.382 66.2967ZM82.2103 0.553939L59.4062 17.4143L224.509 59.5753L82.2103 0.553939ZM163.767 0H144.936L82.2103 0.553939L163.767 0ZM316.482 0.114593L220.26 0H201.429L316.482 0.114593ZM344.237 197.488L344.242 178.382L316.482 0.114593L344.237 197.488ZM344.222 261.22L344.234 216.593L344.237 197.488L344.222 261.22ZM186.889 285.663L303.843 285.67L344.222 261.22L186.889 285.663ZM168.1 271.28L185.681 285.661L186.889 285.663L168.1 271.28ZM223.176 104.611L182.098 145.939L168.1 271.28L223.176 104.611ZM218.76 100.07L219.492 100.837L222.811 104.236L218.76 100.07ZM58.6462 285.686L62.3132 276.153L63.112 273.805L58.6462 285.686ZM58.2397 243.137V264.444L58.6462 285.686L58.2397 243.137ZM255.067 95.1531L261.231 110.923L262.365 112.519L255.067 95.1531ZM237.865 78.1425L259.192 72.4308L263.212 70.954L237.865 78.1425ZM163.767 0L82.2103 0.553939L224.509 59.5753L163.767 0ZM316.482 0.114593L201.429 0H182.598L316.482 0.114593ZM344.222 261.22L344.237 197.488L316.482 0.114593L344.222 261.22ZM168.1 271.28L186.889 285.663L344.222 261.22L168.1 271.28ZM218.76 100.07L222.811 104.236L223.176 104.611L218.76 100.07ZM58.6462 285.686L63.112 273.805L63.9264 271.464L58.6462 285.686ZM58.2397 221.831V243.137L58.6462 285.686L58.2397 221.831ZM255.067 95.1531L262.365 112.519L263.498 114.116L255.067 95.1531ZM237.865 78.1425L263.212 70.954L267.233 69.4781L237.865 78.1425ZM182.598 0H163.767L224.509 59.5753L182.598 0ZM223.176 104.611L168.1 271.28L344.222 261.22L223.176 104.611ZM58.6462 285.686L63.9264 271.464L64.7582 269.129L58.6462 285.686ZM58.2397 200.526V221.831L58.6462 285.686L58.2397 200.526ZM224.509 59.5753L58.2397 51.3881V72.6955L224.509 59.5753ZM228.045 94.4685L224.81 62.4708L224.509 59.5753L228.045 94.4685ZM255.067 95.1531L263.498 114.116L264.627 115.715L255.067 95.1531ZM237.865 78.1425L267.233 69.4781L271.253 68.0032L237.865 78.1425ZM182.598 0L224.509 59.5753L225.735 61.2459L182.598 0ZM58.6462 285.686L64.7582 269.129L65.6091 266.802L58.6462 285.686ZM58.2397 179.221V200.526L58.6462 285.686L58.2397 179.221ZM224.509 59.5753L58.2397 72.6955V94.0017L224.509 59.5753ZM255.067 95.1531L264.627 115.715L265.754 117.318L255.067 95.1531ZM237.865 78.1425L271.253 68.0032L275.273 66.5295L237.865 78.1425ZM182.598 0L225.735 61.2459L226.955 62.9238L182.598 0ZM58.2397 179.221L58.6462 285.686L65.6091 266.802L58.2397 179.221ZM224.509 59.5753L58.2397 94.0017V115.307L224.509 59.5753ZM258.001 92.1512L255.067 95.1531L265.754 117.318L258.001 92.1512ZM237.865 78.1425L275.273 66.5295L279.293 65.057L237.865 78.1425ZM182.598 0L226.955 62.9238L228.17 64.6079L182.598 0ZM58.2397 179.221L65.6091 266.802L66.4808 264.484L58.2397 179.221ZM224.509 59.5753L58.2397 115.307V136.612L224.509 59.5753ZM260.935 89.1482L258.001 92.1512L265.754 117.318L260.935 89.1482ZM237.865 78.1425L279.293 65.057L283.314 63.5861L237.865 78.1425ZM182.598 0L228.17 64.6079L229.382 66.2967L182.598 0ZM58.2397 179.221L66.4808 264.484L67.3751 262.175L58.2397 179.221ZM224.509 59.5753L58.2397 136.612V157.916L224.509 59.5753ZM287.334 62.1167L260.935 89.1482L265.754 117.318L287.334 62.1167ZM237.865 78.1425L283.314 63.5861L287.334 62.1167L237.865 78.1425ZM182.598 0L229.382 66.2967L237.865 78.1425L182.598 0ZM58.2397 179.221L67.3751 262.175L68.2936 259.877L58.2397 179.221ZM224.509 59.5753L58.2397 157.916V179.221L224.509 59.5753ZM182.598 0L237.865 78.1425L287.334 62.1167L182.598 0ZM58.2397 179.221L68.2936 259.877L69.2382 257.59L58.2397 179.221ZM228.045 94.4685L224.509 59.5753L58.2397 179.221L228.045 94.4685ZM316.482 0.114593L182.598 0L287.334 62.1167L316.482 0.114593ZM58.2397 179.221L69.2382 257.59L72.1158 250.868L58.2397 179.221ZM228.066 94.6007L228.045 94.4685L58.2397 179.221L228.066 94.6007ZM316.482 0.114593L287.334 62.1167L265.754 117.318L316.482 0.114593ZM58.2397 179.221L72.1158 250.868L75.1639 244.222L58.2397 179.221ZM228.113 94.7191L228.066 94.6007L58.2397 179.221L228.113 94.7191ZM344.222 261.22L316.482 0.114593L265.754 117.318L344.222 261.22ZM58.2397 179.221L75.1639 244.222L78.3796 237.656L58.2397 179.221ZM228.18 94.8252L228.113 94.7191L58.2397 179.221L228.18 94.8252ZM344.222 261.22L265.754 117.318L262.692 115.495L344.222 261.22ZM58.2397 179.221L78.3796 237.656L81.7597 231.173L58.2397 179.221ZM228.264 94.921L228.18 94.8252L58.2397 179.221L228.264 94.921ZM344.222 261.22L262.692 115.495L259.632 113.672L344.222 261.22ZM58.2397 179.221L81.7597 231.173L85.3013 224.777L58.2397 179.221ZM228.363 95.0081L228.264 94.921L58.2397 179.221L228.363 95.0081ZM344.222 261.22L259.632 113.672L256.574 111.85L344.222 261.22ZM58.2397 179.221L85.3013 224.777L89.0012 218.471L58.2397 179.221ZM228.472 95.0882L228.363 95.0081L58.2397 179.221L228.472 95.0882ZM344.222 261.22L256.574 111.85L229.05 95.4455L344.222 261.22ZM58.2397 179.221L89.0012 218.471L92.8565 212.259L58.2397 179.221ZM228.587 95.1632L228.472 95.0882L58.2397 179.221L228.587 95.1632ZM344.222 261.22L229.05 95.4455L228.587 95.1632L344.222 261.22ZM58.2397 179.221L92.8565 212.259L96.8642 206.144L58.2397 179.221ZM223.176 104.611L344.222 261.22L228.587 95.1632L223.176 104.611ZM58.2397 179.221L96.8642 206.144L101.021 200.129L58.2397 179.221ZM218.76 100.07L223.176 104.611L228.587 95.1632L218.76 100.07ZM58.2397 179.221L101.021 200.129L105.324 194.219L58.2397 179.221ZM215.451 101.649L218.76 100.07L228.587 95.1632L215.451 101.649ZM58.2397 179.221L105.324 194.219L109.771 188.417L58.2397 179.221ZM215.451 101.649L228.587 95.1632L58.2397 179.221L215.451 101.649ZM58.2397 179.221L109.771 188.417L114.357 182.725L58.2397 179.221ZM212.17 103.282L215.451 101.649L58.2397 179.221L212.17 103.282ZM58.2397 179.221L114.357 182.725L119.207 176.983L58.2397 179.221ZM208.915 104.966L212.17 103.282L58.2397 179.221L208.915 104.966ZM58.2397 179.221L119.207 176.983L124.195 171.358L58.2397 179.221ZM205.688 106.699L208.915 104.966L58.2397 179.221L205.688 106.699ZM58.2397 179.221L124.195 171.358L129.315 165.854L58.2397 179.221ZM202.486 108.478L205.688 106.699L58.2397 179.221L202.486 108.478ZM58.2397 179.221L129.315 165.854L134.564 160.472L58.2397 179.221ZM199.309 110.303L202.486 108.478L58.2397 179.221L199.309 110.303ZM58.2397 179.221L134.564 160.472L139.939 155.215L58.2397 179.221ZM196.158 112.17L199.309 110.303L58.2397 179.221L196.158 112.17ZM58.2397 179.221L139.939 155.215L145.436 150.084L58.2397 179.221ZM193.032 114.077L196.158 112.17L58.2397 179.221L193.032 114.077ZM58.2397 179.221L145.436 150.084L151.051 145.082L58.2397 179.221ZM189.93 116.023L193.032 114.077L58.2397 179.221L189.93 116.023ZM58.2397 179.221L151.051 145.082L156.781 140.21L58.2397 179.221ZM186.852 118.004L189.93 116.023L58.2397 179.221L186.852 118.004ZM58.2397 179.221L156.781 140.21L162.62 135.47L58.2397 179.221ZM183.797 120.02L186.852 118.004L58.2397 179.221L183.797 120.02ZM58.2397 179.221L162.62 135.47L168.567 130.865L58.2397 179.221ZM180.765 122.067L183.797 120.02L58.2397 179.221L180.765 122.067ZM58.2397 179.221L168.567 130.865L174.616 126.397L58.2397 179.221ZM174.616 126.397L180.765 122.067L58.2397 179.221L174.616 126.397Z" fill="#C8D5E1"/>
</g>
</svg>
