<svg width="33" height="32" viewBox="0 0 33 32" fill="none" xmlns="http://www.w3.org/2000/svg">
<path fill-rule="evenodd" clip-rule="evenodd" d="M1.35788 0.499198C1.97837 0.167954 2.68285 0.0139962 3.38266 0C11.8177 0 20.2528 0 28.6878 0C29.6116 0.0326578 30.5773 0.28459 31.2678 0.928415C31.795 1.41828 32.0376 2.15075 32.0236 2.85989C32.0376 11.4162 32.0236 19.9773 32.0282 28.5336C32.0236 29.0095 32.0609 29.4993 31.9256 29.9612C31.7716 30.5444 31.3798 31.0529 30.8712 31.3748C30.2227 31.7854 29.4436 31.9673 28.6831 31.9907C23.9664 31.9907 19.2544 31.9907 14.5423 31.9907C14.0011 31.986 13.4599 32 12.9187 31.986C12.2423 30.4044 11.7384 28.7436 11.4911 27.036C11.1879 25.0066 11.2532 22.9165 11.7711 20.9243C12.1909 19.2868 12.9187 17.7332 13.8705 16.3429C15.1068 14.5374 16.7071 13.0025 18.4706 11.7148C18.3073 11.5469 18.1393 11.3789 17.976 11.2063C16.4878 11.9014 15.0742 12.7459 13.7212 13.6696C10.9453 15.5778 8.42596 17.8638 6.28454 20.4625C4.19911 22.9864 2.48223 25.8183 1.23191 28.8462C0.802689 29.8679 0.448118 30.9223 0.112209 31.9813C0.0842169 31.986 0.0282366 31.9953 0.000244141 32C0.000244141 22.4546 0.000244141 12.9138 0.000244141 3.36842C0.00957495 2.89255 -0.0230863 2.40735 0.130872 1.95014C0.317488 1.32497 0.784031 0.807115 1.35788 0.499198ZM18.6199 6.67153C18.7552 7.96851 18.8811 9.26549 19.0164 10.5625C19.0071 10.6325 19.0817 10.6558 19.1284 10.6884C20.5 11.5049 21.867 12.3213 23.2386 13.1378C22.7348 12.4193 22.2216 11.7102 21.713 10.9917C23.0287 9.64806 24.3397 8.29975 25.6553 6.95612C23.8545 7.61394 22.0536 8.27643 20.2528 8.93891C19.7022 8.18778 19.1704 7.41799 18.6199 6.67153Z" fill="url(#paint0_linear_902_12083)"/>
<defs>
<linearGradient id="paint0_linear_902_12083" x1="16.0151" y1="0" x2="16.0151" y2="32" gradientUnits="userSpaceOnUse">
<stop stop-color="white"/>
<stop offset="1" stop-color="white" stop-opacity="0.6"/>
</linearGradient>
</defs>
</svg>
