<svg width="101" height="23" viewBox="0 0 101 23" fill="none" xmlns="http://www.w3.org/2000/svg">
<path fill-rule="evenodd" clip-rule="evenodd" d="M4.1177 2.94369C4.13545 1.55323 5.35431 0.204198 6.79802 0.328451C13.6615 0.328451 20.531 0.334368 27.3886 0.328451C28.3353 0.340285 29.2938 0.257449 30.2286 0.423121C30.6724 1.18047 30.418 2.11533 30.4771 2.9496C30.5245 6.21569 30.3588 9.48769 30.5541 12.7419C31.1457 13.2863 32.0688 12.9964 32.8025 13.0437C33.3646 13.1265 33.7432 12.6591 33.8024 12.1443C34.6485 8.59425 35.5183 5.05008 36.3526 1.49407C36.5064 1.07397 36.5833 0.304784 37.1868 0.358035C40.5712 0.310701 43.9616 0.334369 47.3519 0.35212C48.3164 4.1803 49.269 8.00849 50.2157 11.8426C50.2453 12.4224 50.6535 12.6769 51.2038 12.6828C52.1801 8.59425 53.1149 4.4939 54.0261 0.387619C57.3809 0.2752 60.7476 0.340286 64.1025 0.346203C64.7415 0.2397 64.8894 0.914218 65.0136 1.38165C65.9012 5.06191 66.7591 8.75401 67.6703 12.4284C67.7768 13.1384 68.6111 13.0319 69.1436 13.0555C76.1254 13.0319 83.1132 13.0674 90.0951 13.0378C91.3198 13.1265 91.0713 11.2864 90.6631 10.6001C85.5509 10.3338 80.3974 10.6296 75.2793 10.4581C74.5456 10.3693 74.806 9.48769 74.7232 8.97885C74.7646 8.51142 74.593 7.63573 75.2261 7.54106C80.4092 7.48781 85.6101 7.67123 90.7873 7.44047C90.8997 6.73637 91.024 6.01452 90.8761 5.31042C90.6512 4.87849 90.1306 5.00274 89.746 4.96724C83.8351 4.97908 77.9301 4.97316 72.0192 4.97316C71.4985 5.03233 70.7885 4.8489 70.8536 4.19214C70.9068 2.95552 70.5577 1.58874 71.0843 0.440872C72.0073 0.233783 72.9659 0.346201 73.9066 0.328451C81.7168 0.334368 89.533 0.334368 97.3432 0.328451C98.2899 0.298867 99.3312 0.511874 99.9229 1.3284C100.935 2.47626 100.633 4.09747 100.651 5.49976C100.674 6.9908 99.6803 8.28658 98.4082 8.97293C99.6921 9.79537 100.751 11.174 100.651 12.7715C100.568 14.1028 100.988 15.6649 100.023 16.7654C99.3253 17.6943 98.0769 17.7949 97.0118 17.7772C85.0303 17.7357 73.0487 17.8245 61.073 17.7357C60.363 14.7241 59.6057 11.7302 58.9252 8.71259C58.73 8.69484 58.3276 8.65342 58.1324 8.63567C57.0555 13.1029 55.9787 17.5701 54.9255 22.0432C52.1091 22.1201 49.2926 22.1734 46.4822 22.0195C45.5828 18.0848 44.5533 14.1738 43.6302 10.2391C43.4705 9.64153 43.3699 9.02026 43.0918 8.46408C42.7309 8.12091 42.5534 8.84276 42.4646 9.07943C41.6659 11.9313 41.1688 14.8779 40.2162 17.6766C36.2756 17.8718 32.3114 17.7002 28.353 17.7594C19.6967 17.7653 11.0404 17.7476 2.38407 17.7712C1.85747 17.7712 1.33679 17.6943 0.827945 17.5937C0.833862 16.2092 0.727357 14.8188 0.85161 13.4401C1.56163 12.4934 3.15917 13.5052 4.0112 12.7656C4.23603 9.50545 3.99936 6.20977 4.1177 2.94369ZM12.9811 5.05599L12.8036 5.198C12.6024 7.39905 12.774 9.62378 12.7148 11.8308C12.774 12.2094 12.5728 12.9668 13.1704 12.9845C15.4898 13.1088 17.8211 12.9964 20.1464 13.0378C20.5961 13.0437 21.3771 13.0733 21.3002 12.3988C21.3061 10.0202 21.3712 7.62981 21.2647 5.25716C21.1877 5.19208 21.028 5.06783 20.957 5.00866C18.3003 4.96133 15.62 4.88441 12.9811 5.05599Z" fill="url(#paint0_linear_902_12082)"/>
<defs>
<linearGradient id="paint0_linear_902_12082" x1="50.7353" y1="0.31366" x2="50.7353" y2="22.1182" gradientUnits="userSpaceOnUse">
<stop stop-color="white"/>
<stop offset="1" stop-color="white" stop-opacity="0.6"/>
</linearGradient>
</defs>
</svg>
