<svg xmlns="http://www.w3.org/2000/svg" width="64" height="64" fill="none">
    <path fill="#C1C3C4" fill-rule="evenodd"
        d="M51.396 12.525c-2.721-2.705-7.441-2.396-9.867.532l-.01.012-4.843 5.776a2.667 2.667 0 0 1-2.533.907l-20.515-3.837c-.912-.117-1.7.144-2.242.65-1.03 1.206-.87 2.676-.053 3.488a10.194 10.194 0 0 0 .286.276c.021.01.06.025.125.046.156.052.307.118.45.197l13.075 7.22a2.667 2.667 0 0 1 .73 4.075L11.472 48.712l-.032.036c-.941 1.053-.85 2.812.135 3.79.99.985 2.783 1.081 3.856.138l.004-.004 16.455-14.67a2.59 2.59 0 0 1 .074-.064l18.885-15.641c.185-.154.39-.28.606-.378 2.524-2.574 2.504-6.846-.059-9.394ZM37.427 9.648C41.782 4.4 50.132 3.75 55.156 8.743c4.68 4.652 4.68 12.365 0 17.018l-.021.02c-.103.103-.348.348-.628.557a3.576 3.576 0 0 1-.64.384L35.403 42.015 18.975 56.66l-.009.008c-3.286 2.903-8.269 2.518-11.151-.347-2.883-2.866-3.28-7.831-.368-11.11l12.368-14.34L9.81 25.348a5.365 5.365 0 0 1-1.265-.658c-.398-.282-.722-.605-.93-.813l-.042-.042c-3.044-3.024-2.893-7.774-.108-10.888a2.62 2.62 0 0 1 .108-.113c1.869-1.858 4.429-2.538 6.855-2.193.038.005.077.012.115.019l19.048 3.563 3.836-4.575Z"
        clip-rule="evenodd" />
    <path fill="#C1C3C4" fill-rule="evenodd"
        d="M46.252 26.991a2.667 2.667 0 0 1 3.162 2.056l4.327 20.396c.01.043.017.086.024.13.41 2.544-.424 5.148-2.485 6.977-3.97 3.522-10.173 2.453-12.922-1.73l-3.786-5.758a2.667 2.667 0 0 1 4.456-2.93l3.786 5.759c1.037 1.577 3.486 1.947 4.926.67.629-.558.88-1.292.768-2.087l-4.311-20.32a2.667 2.667 0 0 1 2.055-3.163Z"
        clip-rule="evenodd" />
</svg>