<svg xmlns="http://www.w3.org/2000/svg" width="32" height="32" fill="none">
    <path fill="#D7153A"
        d="M16 1.455C8 1.455 1.455 8 1.455 16S8 30.545 16 30.545 30.546 24 30.546 16 24 1.455 16 1.455Z" />
    <path fill="#fff"
        d="M16 20.218c-.873 0-1.454-.582-1.454-1.454v-1.455c0-.873.581-1.454 1.454-1.454 1.891 0 3.346-1.455 3.346-3.346 0-1.89-1.455-3.345-3.346-3.345-1.89 0-3.345 1.454-3.345 3.345 0 .873-.582 1.455-1.455 1.455-.873 0-1.454-.582-1.454-1.455A6.208 6.208 0 0 1 16 6.255a6.208 6.208 0 0 1 6.255 6.254c0 2.91-2.037 5.382-4.8 6.11v.145c0 .872-.582 1.454-1.455 1.454ZM16 25.745c-.873 0-1.455-.581-1.455-1.454v-1.455c0-.872.582-1.454 1.455-1.454.873 0 1.454.582 1.454 1.454v1.455c0 .873-.581 1.454-1.454 1.454Z" />
</svg>