<svg xmlns="http://www.w3.org/2000/svg" width="48" height="48" fill="none">
    <path fill="#C1C3C4"
        d="M20.2 17.6c-1.2-2-2.4-3.4-3.8-4.4 1-1.2 1.6-2.8 1.6-4.4C18 5 15 2 11.2 2S4.6 5 4.6 8.8c0 1.8.6 3.2 1.6 4.4C3.6 14.8 2 17.8 2 21v5.6c0 1.2.8 2 2 2s2-.8 2-2V21c0-2.2 1.2-4.2 3.2-5 .6-.2 1.4-.4 2.2-.4 2.4 0 3.6.6 5.6 4l5.4 8.2c.4.6 1 .8 1.6.8.4 0 .8-.2 1.2-.4 1-.6 1.2-1.8.6-2.8l-5.6-7.8ZM11.2 6C12.8 6 14 7.2 14 8.8c0 1.6-1.2 2.6-2.8 2.6-1.6 0-2.6-1.2-2.6-2.6C8.6 7.4 9.8 6 11.2 6Z" />
    <path fill="#C1C3C4"
        d="M15 22c-1.2 0-2 .8-2 2v16.4c0 1-.8 1.6-1.6 1.6s-1.6-.8-1.6-1.6v-9c0-1.2-.8-2-2-2s-2 .8-2 2v9c0 3.2 2.6 5.6 5.6 5.6 3.2 0 5.6-2.6 5.6-5.6V24c0-1.2-1-2-2-2ZM41.8 13.2c1-1.2 1.8-2.8 1.8-4.4 0-3.8-3-6.8-6.8-6.8S30 5 30 8.8c0 1.6.6 3.2 1.6 4.4-1.6 1-2.8 2.4-3.8 4.4L26.2 20c-.6 1-.4 2.2.6 2.8 1 .6 2.2.4 2.8-.6l1.6-2.4c2-3.2 3.2-3.8 5.6-3.8.8 0 1.4.2 2.2.4 1.8.4 3 2.4 3 4.6v5.6c0 1.2.8 2 2 2s2-.8 2-2V21c0-3.2-1.6-6.2-4.2-7.8Zm-5-7.2c1.6 0 2.8 1.2 2.8 2.8 0 1.6-1.2 2.8-2.8 2.8-1.6 0-2.8-1.2-2.8-2.8C34 7.2 35.2 6 36.8 6Z" />
    <path fill="#C1C3C4"
        d="M40.4 29.2c-1.2 0-2 .8-2 2v9c0 1-.8 1.6-1.6 1.6s-1.6-.8-1.6-1.6V24c0-1.2-.8-2-2-2s-2 .8-2 2v16.4c0 3.2 2.6 5.6 5.6 5.6 3 0 5.6-2.6 5.6-5.6v-9c0-1.2-1-2.2-2-2.2Z" />
</svg>