<svg xmlns="http://www.w3.org/2000/svg" width="24" height="24" fill="none">
    <path fill="url(#a)"
        d="M9.992 18.084c.502.61 1.205.916 2.008.916.803 0 1.506-.305 2.008-.916l5.521-6.719c.502-.61.603-1.527.302-2.24-.302-.712-1.004-1.22-1.808-1.22h-2.309V4.34c0-1.322-1.003-2.34-2.309-2.34h-2.71c-1.305 0-2.41 1.018-2.41 2.341v3.563H5.976c-.803.102-1.505.51-1.807 1.222-.3.712-.2 1.629.302 2.24l5.521 6.718Z" />
    <path fill="url(#b)"
        d="M20.905 15.1c-.597 0-.995.4-.995 1v2.5c0 .8-.696 1.5-1.492 1.5H5.483c-.796-.1-1.493-.8-1.493-1.6V16c0-.6-.398-1-.995-1S2 15.4 2 16v2.5c0 2 1.493 3.5 3.483 3.5h13.034A3.47 3.47 0 0 0 22 18.5V16c-.1-.5-.497-.9-1.095-.9Z" />
    <defs>
        <linearGradient id="a" x1="12" x2="12" y1="2" y2="19" gradientUnits="userSpaceOnUse">
            <stop stop-color="#D7153A" />
            <stop offset="1" stop-color="#D7153A" stop-opacity=".6" />
        </linearGradient>
        <linearGradient id="b" x1="12" x2="12" y1="15" y2="22" gradientUnits="userSpaceOnUse">
            <stop stop-color="#D7153A" />
            <stop offset="1" stop-color="#D7153A" stop-opacity=".6" />
        </linearGradient>
    </defs>
</svg>