<svg xmlns="http://www.w3.org/2000/svg" width="20" height="21" fill="none">
    <path fill="url(#a)"
        d="m15.727 6.5-3.42-3.417a2.76 2.76 0 0 0-2.05-.916H5.556c-1.197 0-2.223 1-2.223 2.25v12.25c0 1.166 1.026 2.166 2.223 2.166h8.889c1.196 0 2.222-1 2.222-2.25v-8c0-.833-.342-1.583-.94-2.083Z" />
    <path fill="#fff"
        d="M12.333 11.333h-5c-.5 0-.833.334-.833.834 0 .5.333.833.833.833h5c.5 0 .834-.333.834-.833 0-.5-.417-.834-.834-.834ZM9.833 13.833h-2.5c-.5 0-.833.334-.833.834 0 .5.333.833.833.833h2.5c.5 0 .834-.333.834-.833 0-.5-.417-.834-.834-.834Z" />
    <defs>
        <linearGradient id="a" x1="10" x2="10" y1="2.167" y2="18.833" gradientUnits="userSpaceOnUse">
            <stop stop-color="#D7153A" />
            <stop offset="1" stop-color="#D7153A" stop-opacity=".6" />
        </linearGradient>
    </defs>
</svg>