<svg xmlns="http://www.w3.org/2000/svg" width="48" height="48" fill="none">
    <path fill="#C1C3C4"
        d="M44.896 13.872c-.202-.606-.81-1.212-1.416-1.212-.607-.202-1.417 0-1.821.606l-6.475 6.466c-.81.808-2.024 1.212-3.238 1.414-1.214 0-2.225-.404-3.237-1.212-.81-.808-1.416-2.02-1.416-3.233 0-1.414.607-2.829 1.618-3.84l6.07-6.06c.405-.405.608-1.213.608-1.82 0-.606-.81-1.616-1.417-1.818-7.689-2.829-16.187-.404-21.246 6.264-3.237 4.243-4.249 9.699-3.035 14.952L3.62 30.643C2.607 31.653 2 33.27 2 34.685c0 1.414.607 3.03 1.619 4.04l5.26 5.658C9.892 45.393 11.51 46 12.927 46c1.417 0 3.035-.606 4.047-1.617l6.273-6.263c6.07 1.414 12.545-.404 17.199-4.85 5.26-5.051 6.88-12.73 4.451-19.398Zm-7.082 16.57c-3.642 3.636-9.105 5.05-14.164 3.636-.809-.202-1.416 0-2.023.607l-7.082 7.072c-.607.606-1.821.606-2.63 0L6.45 36.3c-.404-.606-.607-1.01-.607-1.414 0-.404.203-1.01.607-1.213l7.082-7.072c.607-.606.81-1.212.405-2.02-1.214-4.446-.405-9.295 2.226-12.73 2.833-3.84 7.082-5.86 11.533-5.86.607 0 1.214 0 1.821.202L25.876 9.83c-1.82 1.617-2.833 4.243-2.833 6.668s1.012 4.445 2.63 6.062c1.62 1.414 3.643 2.223 5.869 2.223h.202c2.226 0 4.452-.809 6.07-2.627l3.845-3.84c.81 4.446-.81 8.891-3.845 12.124Z" />
</svg>