<svg xmlns="http://www.w3.org/2000/svg" width="24" height="24" fill="none">
    <path stroke="#808285" stroke-linecap="round" stroke-linejoin="round" stroke-width="1.5"
        d="m13.414 13.414 2.475-2.475a1.5 1.5 0 0 0 0-2.121v0a1.5 1.5 0 0 0-2.12 0M15.182 11.646a1.5 1.5 0 0 1 2.121 0v0a1.5 1.5 0 0 1 0 2.121l-2.475 2.475" />
    <path stroke="#808285" stroke-linecap="round" stroke-linejoin="round" stroke-width="1.5"
        d="m11.293 11.293 6.01-6.01a1.5 1.5 0 0 0 0-2.121v0a1.5 1.5 0 0 0-2.12 0l-7.426 7.425V7.923a1.58 1.58 0 0 0-1.579-1.579v0c-.727 0-1.352.513-1.495 1.225l-1.123 5.62a7.163 7.163 0 0 0 1.96 6.472v0a7.165 7.165 0 0 0 10.133 0l2.004-2.004 1.061-1.061a1.5 1.5 0 0 0 0-2.121v0a1.5 1.5 0 0 0-2.12 0" />
</svg>