<svg xmlns="http://www.w3.org/2000/svg" width="64" height="64" fill="none">
    <path fill="#C1C3C4"
        d="M43.467 10.667c-4.534 0-8.534 1.834-11.467 5.24-2.933-3.406-6.933-5.24-11.467-5.24-8.266 0-15.2 6.813-15.2 14.936v1.572C6.4 39.491 19.733 49.711 27.467 54.69 28.8 55.476 30.4 56 32 56c1.6 0 3.2-.524 4.533-1.31C44.267 49.71 57.6 39.49 58.667 27.437v-1.572c0-8.385-6.934-15.198-15.2-15.198Zm9.866 15.984C52.533 37.133 39.2 46.566 33.6 49.973c-1.067.524-2.133.524-3.2 0-5.6-3.669-18.667-13.102-19.733-23.584v-.786c0-5.24 4.533-9.696 9.866-9.696 4 0 7.467 2.359 9.067 5.765.267 1.049 1.333 1.573 2.4 1.573s2.133-.524 2.4-1.573c1.6-3.406 5.067-5.764 9.067-5.764 5.333 0 9.866 4.454 9.866 9.695v1.048Z" />
</svg>