<svg xmlns="http://www.w3.org/2000/svg" width="64" height="64" fill="none">
    <path fill="#C1C3C4" fill-rule="evenodd"
        d="M33.98 11.294c-1.251-.837-2.709-.837-3.961 0l-.045.03-16.478 10.534a6.16 6.16 0 0 0-2.83 5.174v22.504a3.762 3.762 0 0 0 3.782 3.797h35.104a3.762 3.762 0 0 0 3.781-3.797V27.032c0-2.077-1.099-3.94-2.88-5.207l-16.427-10.5-.045-.03Zm2.94-4.45c-3.034-2.014-6.806-2.014-9.84 0L10.626 17.363c-3.433 2.19-5.293 5.933-5.293 9.67v22.503a9.096 9.096 0 0 0 9.115 9.13h35.104a9.096 9.096 0 0 0 9.115-9.13V27.032c0-4.13-2.227-7.521-5.195-9.604a2.645 2.645 0 0 0-.095-.064L36.92 6.844Z"
        clip-rule="evenodd" />
</svg>