<svg xmlns="http://www.w3.org/2000/svg" width="48" height="48" fill="none">
    <path fill="#C1C3C4"
        d="M16.968 46c-.602 0-1.205-.2-1.808-.402-1.607-.803-2.41-2.41-2.01-4.017l2.412-11.648h-3.617c-1.607 0-3.013-1.004-3.616-2.41-.603-1.406-.402-3.013.804-4.017L28.219 3.221c1.205-1.205 3.215-1.606 4.621-.803 1.607.803 2.41 2.41 2.01 4.017l-2.412 11.648h3.616c1.608 0 3.014 1.005 3.617 2.41.603 1.406.402 3.013-.804 4.017L19.781 44.795c-.804.803-1.808 1.205-2.813 1.205Zm1.005-20.285c.603 0 1.205.201 1.607.804.402.602.603 1.004.402 1.606L17.37 41.782 36.054 21.9h-5.826c-.603 0-1.205-.2-1.607-.803-.402-.402-.603-1.004-.402-1.607l2.612-13.657-18.685 20.084 5.827-.2Z" />
</svg>