<svg xmlns="http://www.w3.org/2000/svg" width="48" height="48" fill="none">
    <path fill="url(#a)"
        d="M44 22.35c-.833-9.825-8.83-17.652-18.658-18.319-5.997-.333-11.827 1.999-15.825 6.329-4.165 4.33-6.164 10.325-5.331 16.154 1.166 8.826 8.33 16.154 17.325 17.32.833.166 1.666.166 2.499.166 3.498 0 6.996-.833 9.995-2.665 1.666-.999 2.165-2.997 1.166-4.496-1-1.665-2.999-2.165-4.498-1.166-2.499 1.499-5.497 1.999-8.33 1.666-5.996-.667-10.827-5.496-11.494-11.491-.5-3.997.833-7.994 3.499-10.825 2.665-2.831 6.663-4.497 10.661-4.164 6.497.333 11.828 5.663 12.494 12.158v2.83c-.166.667-.833 1.333-1.832 1.333-1 0-1.666-.833-1.666-1.665v-1.5c0-5.329-4.331-9.658-9.662-9.658-5.33 0-9.995 4.33-9.995 9.659 0 5.329 4.33 9.659 9.662 9.659 2.332 0 4.33-.833 5.997-1.999 1.499 1.333 3.332 1.999 5.33 1.999h.334c4.164 0 7.663-2.998 8.329-7.161V22.35Zm-19.99 4.663a2.986 2.986 0 0 1-2.999-2.997 2.986 2.986 0 0 1 2.999-2.998 2.986 2.986 0 0 1 2.998 2.998 2.986 2.986 0 0 1-2.998 2.997Z" />
    <defs>
        <linearGradient id="a" x1="24" x2="24" y1="4" y2="44" gradientUnits="userSpaceOnUse">
            <stop stop-color="#D7153A" />
            <stop offset="1" stop-color="#D7153A" stop-opacity=".6" />
        </linearGradient>
    </defs>
</svg>