<svg xmlns="http://www.w3.org/2000/svg" width="48" height="48" fill="none">
    <path fill="url(#a)"
        d="M36.8 2H11.2C6.2 2 2 6.2 2 11.2V44c0 .8.4 1.4 1 1.8.4.2.6.2 1 .2s.8-.2 1.2-.4l9.8-7c1.6-1 3.4-1.6 5.2-1.6h16.6c5.2 0 9.2-4.2 9.2-9.2V11.2c0-5-4.2-9.2-9.2-9.2Z" />
    <path fill="#fff"
        d="M33 17H15c-1.2 0-2-.8-2-2s.8-2 2-2h18.2c1.2 0 2 .8 2 2s-1 2-2.2 2ZM24 26h-9c-1.2 0-2-.8-2-2s.8-2 2-2h9c1.2 0 2 .8 2 2s-.8 2-2 2Z" />
    <defs>
        <linearGradient id="a" x1="24" x2="24" y1="2" y2="46" gradientUnits="userSpaceOnUse">
            <stop stop-color="#D7153A" />
            <stop offset="1" stop-color="#D7153A" stop-opacity=".6" />
        </linearGradient>
    </defs>
</svg>