<svg xmlns="http://www.w3.org/2000/svg" width="21" height="20" fill="none">
    <path fill="url(#a)"
        d="M19.392 7.743 12.804 1.11a.88.88 0 0 0-1.281 0 .895.895 0 0 0 0 1.29l.183.184L6.398 6.36l-2.928.368c-.915.093-1.738.83-2.013 1.659-.274.829-.091 1.842.55 2.395l3.202 3.225L2.92 16.31a.895.895 0 0 0 0 1.29.985.985 0 0 0 .64.276.985.985 0 0 0 .641-.276l2.288-2.304 3.203 3.225c.457.46 1.006.645 1.647.645.274 0 .549 0 .732-.093.915-.276 1.555-1.105 1.647-2.026l.457-2.948 2.746-3.87c.274-.46.183-1.013-.183-1.29-.458-.276-1.007-.184-1.282.185l-2.836 4.053c-.092.092-.092.277-.183.369l-.458 3.132c-.091.369-.366.46-.457.553-.092 0-.366.092-.55-.092L7.13 13.27 3.38 9.585c-.275-.184-.183-.46-.183-.552 0-.092.183-.369.549-.461l3.11-.46c.184 0 .275-.093.367-.185l5.673-4.053 5.216 5.25a.985.985 0 0 0 .64.277.985.985 0 0 0 .641-.276 1.007 1.007 0 0 0 0-1.382Z" />
    <defs>
        <linearGradient id="a" x1="10.5" x2="10.5" y1=".833" y2="19.167" gradientUnits="userSpaceOnUse">
            <stop stop-color="#fff" />
            <stop offset="1" stop-color="#fff" stop-opacity=".6" />
        </linearGradient>
    </defs>
</svg>