<svg xmlns="http://www.w3.org/2000/svg" width="64" height="64" fill="none">
    <path fill="#C1C3C4"
        d="M46.4 22.667h-1.067v-3.734c.267-7.466-5.866-13.6-13.333-13.6-7.467 0-13.6 6.134-13.6 13.6v4h-.8a9.56 9.56 0 0 0-9.6 9.6v16.8a9.56 9.56 0 0 0 9.6 9.6h29.067a9.56 9.56 0 0 0 9.6-9.6v-16.8c-.267-5.6-4.534-9.866-9.867-9.866Zm-22.667-3.734c0-4.533 3.734-8.266 8.267-8.266 4.533 0 8.267 3.733 8.267 8.266v4H23.733v-4ZM51.2 49.067c0 2.4-2.4 4.266-4.8 4.266H17.6c-2.4 0-4.267-1.866-4.267-4.266v-16.8c0-2.4 1.867-4.267 4.267-4.267H46.933c2.4 0 4.267 1.867 4.267 4.267v16.8Z" />
    <path fill="#C1C3C4"
        d="M32 40.267c-1.6 0-2.667 1.066-2.667 2.666V47.2c0 1.6 1.067 2.667 2.667 2.667 1.6 0 2.667-1.067 2.667-2.667v-4.267c0-1.6-1.067-2.666-2.667-2.666Z" />
</svg>