<svg xmlns="http://www.w3.org/2000/svg" width="64" height="64" fill="none">
    <path fill="#C1C3C4"
        d="M58.133 16.267 56.8 12.533C56 9.867 53.333 8 50.667 8H13.333C10.667 8 8 9.867 7.2 12.533l-1.333 3.734c-1.067 3.466-.534 6.933 1.6 9.866C8 27.2 9.067 28 9.867 28.8v17.067c0 5.866 4.8 10.4 10.4 10.4h5.866c1.6 0 2.667-1.067 2.667-2.667v-7.733c0-1.867 1.333-3.2 3.2-3.2 1.867 0 3.2 1.333 3.2 3.2V53.6c0 1.6 1.067 2.667 2.667 2.667h5.866c5.867 0 10.4-4.8 10.4-10.4v-8.534c0-1.6-1.066-2.666-2.666-2.666-1.6 0-2.667 1.066-2.667 2.666V45.6c0 2.933-2.4 5.067-5.067 5.067h-3.2V45.6c0-4.8-3.733-8.533-8.533-8.533-4.8 0-8.533 3.733-8.533 8.533v5.067h-3.2c-2.934 0-5.067-2.4-5.067-5.067V30.667h1.333c2.934 0 5.867-1.334 7.734-3.467 1.866 2.4 4.8 3.733 7.733 3.733s5.867-1.333 7.733-3.466c1.867 2.133 4.8 3.466 7.734 3.466 3.733 0 6.933-1.6 9.066-4.533 2.134-3.2 2.667-6.667 1.6-10.133ZM52.267 23.2c-1.067 1.6-2.667 2.4-4.534 2.4-2.4 0-4.533-1.6-5.066-3.733-.267-1.334-1.6-2.134-2.934-2.134-1.333 0-2.4.8-2.933 2.134C36.267 24 34.133 25.6 32 25.6s-4.267-1.6-4.8-3.733c-.533-1.334-1.6-2.134-2.933-2.134-1.334 0-2.667.8-2.934 2.134C20.8 24 18.667 25.6 16.533 25.6c-1.866 0-3.466-.8-4.8-2.4-1.066-1.6-1.333-3.467-.8-5.333l1.334-3.734c.266-.533.533-.8 1.066-.8h37.334c.533 0 1.066.267 1.066.8l1.334 3.734c.533 1.866.266 3.733-.8 5.333Z" />
</svg>