<svg width="24" height="16" viewBox="0 0 24 16" fill="none" xmlns="http://www.w3.org/2000/svg">
<path fill-rule="evenodd" clip-rule="evenodd" d="M23.4493 1.83858C23.6163 1.28232 23.4494 0.873474 22.6553 0.873474H20.0297C19.362 0.873474 19.0544 1.22662 18.8875 1.61615C18.8875 1.61615 17.5522 4.87059 15.6607 6.98459C15.0487 7.59654 14.7706 7.79103 14.4367 7.79103C14.2698 7.79103 14.0283 7.59654 14.0283 7.04029V1.83858C14.0283 1.17092 13.8345 0.873474 13.2781 0.873474H9.15214C8.73504 0.873474 8.48411 1.1833 8.48411 1.47699C8.48411 2.10995 9.4297 2.25586 9.52722 4.03602V7.90262C9.52722 8.75031 9.37419 8.9041 9.04036 8.9041C8.15028 8.9041 5.98527 5.63484 4.70097 1.89428C4.44929 1.16717 4.19685 0.873474 3.52582 0.873474H0.90021C0.150035 0.873474 0 1.22662 0 1.61615C0 2.31156 0.89027 5.76087 4.14472 10.3227C6.3146 13.4378 9.37119 15.1268 12.1528 15.1268C13.822 15.1268 14.0283 14.7517 14.0283 14.1056V11.751C14.0283 11.0008 14.1864 10.8512 14.7147 10.8512C15.1044 10.8512 15.7719 11.0458 17.3298 12.5479C19.11 14.3279 19.4033 15.1268 20.4048 15.1268H23.0304C23.7806 15.1268 24.1556 14.7517 23.9392 14.0115C23.7025 13.2737 22.8526 12.2036 21.7247 10.9346C21.1127 10.2113 20.1947 9.43241 19.9168 9.04307C19.5272 8.54233 19.6385 8.3199 19.9168 7.87505C19.9168 7.87505 23.1155 3.36874 23.4493 1.83876V1.83858Z" fill="url(#paint0_linear_902_11805)"/>
<defs>
<linearGradient id="paint0_linear_902_11805" x1="12" y1="0.873474" x2="12" y2="15.1268" gradientUnits="userSpaceOnUse">
<stop stop-color="white"/>
<stop offset="1" stop-color="white" stop-opacity="0.6"/>
</linearGradient>
</defs>
</svg>
