<svg xmlns="http://www.w3.org/2000/svg" width="48" height="48" fill="none">
    <path fill="#C1C3C4" fill-rule="evenodd"
        d="M8 10.8C8 7.197 10.809 4 14.627 4h10.058c2.1 0 4.228.784 5.836 2.382l.02.019 7.232 7.391c1.604 1.601 2.418 3.946 2.189 6.122V37.2c0 3.603-2.809 6.8-6.627 6.8H14.627C10.808 44 8 40.803 8 37.2V10.8ZM14.627 8C13.215 8 12 9.203 12 10.8v26.4c0 1.597 1.215 2.8 2.627 2.8h18.708c1.412 0 2.627-1.203 2.627-2.8V19.8c0-.083.005-.167.015-.25.124-.98-.264-2.166-1.034-2.932l-.02-.019-7.231-7.39A4.26 4.26 0 0 0 24.685 8H14.627Z"
        clip-rule="evenodd" />
    <path fill="#C1C3C4" fill-rule="evenodd"
        d="M16 28a2 2 0 0 1 2-2h12a2 2 0 1 1 0 4H18a2 2 0 0 1-2-2ZM16 34a2 2 0 0 1 2-2h6a2 2 0 1 1 0 4h-6a2 2 0 0 1-2-2Z"
        clip-rule="evenodd" />
</svg>